<?xml version="1.0" encoding="utf-8"?>
<!DOCTYPE svg PUBLIC "-//W3C//DTD SVG 1.0//EN" "http://www.w3.org/TR/2001/REC-SVG-20010904/DTD/svg10.dtd">
<svg version="1.0" xmlns="http://www.w3.org/2000/svg" width="524px" height="292px" viewBox="0 0 524 292" preserveAspectRatio="xMidYMid meet">
 <g fill="#d2ebfb">
  <path d="M215.54 233.29 c0 -1.14 4.42 -10.32 20.64 -42.73 20.30 -40.63 20.64 -41.28 21.71 -41.28 0.61 0 1.83 0.42 2.70 0.91 0.88 0.50 7.50 4.27 14.74 8.42 7.24 4.11 14.70 8.38 16.57 9.44 1.90 1.07 3.85 2.21 4.38 2.51 0.50 0.34 -0.46 -1.03 -2.17 -3.01 -1.71 -1.98 -8.45 -9.86 -15 -17.52 -6.51 -7.65 -12.95 -15.12 -14.28 -16.60 -2.06 -2.28 -2.44 -2.93 -2.44 -4.11 0 -1.37 0 -1.37 1.60 -1.37 0.84 0 3.47 0.61 5.79 1.37 2.32 0.76 5.52 1.75 7.08 2.25 2.51 0.76 16.15 5.10 31.23 9.90 2.82 0.91 10.36 3.31 16.76 5.33 6.40 2.02 12.68 4.04 14.01 4.49 2.51 0.88 1.45 -0.04 28.41 24.64 3.81 3.47 10.66 9.71 15.27 13.90 4.61 4.19 9.67 8.80 11.23 10.28 4.30 4 10.32 9.48 11.73 10.66 0.91 0.76 1.22 1.33 1.22 2.32 0 1.52 1.33 1.18 -12.38 3.16 -14.97 2.17 -47.03 6.89 -62.64 9.22 -15.92 2.36 -18.70 2.63 -40.75 4.15 -9.52 0.65 -22.05 1.49 -27.80 1.90 -24.45 1.75 -38.58 2.74 -42.92 2.93 l-4.68 0.23 0 -1.41z"/>
 </g>
 <g fill="#b2d8f5">
  <path d="M304.65 291.48 c-0.95 -0.53 -2.17 -1.33 -2.74 -1.83 -0.53 -0.46 -1.49 -1.10 -2.09 -1.41 -2.06 -1.07 -3.92 -2.32 -3.92 -2.63 0 -0.19 -0.34 -0.46 -0.80 -0.57 -0.95 -0.30 -4.30 -2.51 -4.46 -2.93 -0.08 -0.15 -0.38 -0.30 -0.69 -0.30 -0.30 0 -0.65 -0.27 -0.76 -0.57 -0.15 -0.30 -0.42 -0.57 -0.69 -0.57 -0.23 0 -1.94 -1.03 -3.81 -2.28 -1.87 -1.26 -3.62 -2.28 -3.92 -2.28 -0.27 0 -0.50 -0.23 -0.50 -0.53 0 -0.30 -0.46 -0.65 -0.99 -0.76 -0.57 -0.15 -1.22 -0.46 -1.49 -0.72 -0.27 -0.27 -2.40 -1.64 -4.76 -3.12 -2.32 -1.45 -5.56 -3.54 -7.16 -4.57 -1.60 -1.07 -4.30 -2.74 -5.98 -3.81 -1.68 -1.03 -3.12 -1.98 -3.24 -2.09 -0.11 -0.15 -0.80 -0.57 -1.52 -0.99 -0.72 -0.38 -1.49 -0.95 -1.64 -1.18 -0.15 -0.27 -0.50 -0.50 -0.72 -0.50 -0.27 0 -1.07 -0.38 -1.79 -0.88 -0.76 -0.50 -2.82 -1.83 -4.61 -3.01 -1.79 -1.14 -3.81 -2.44 -4.46 -2.82 -0.69 -0.38 -1.26 -0.80 -1.26 -0.91 0 -0.11 -0.65 -0.53 -1.41 -0.95 -0.80 -0.42 -1.60 -0.88 -1.83 -1.07 -1.37 -1.03 -4.42 -2.93 -4.68 -2.93 -0.19 0 -0.65 -0.34 -1.03 -0.76 -0.38 -0.42 -0.91 -0.76 -1.22 -0.76 -0.27 0 -0.50 -0.15 -0.50 -0.38 0 -0.19 -0.19 -0.38 -0.42 -0.38 -0.23 0 -1.14 -0.50 -2.06 -1.14 -0.91 -0.61 -1.83 -1.14 -2.02 -1.14 -0.19 0 -0.65 -0.34 -1.03 -0.76 -0.38 -0.42 -0.84 -0.76 -1.03 -0.76 -0.19 0 -1.18 -0.57 -2.17 -1.22 -1.03 -0.69 -2.55 -1.68 -3.39 -2.17 -1.22 -0.72 -1.56 -1.18 -1.75 -2.36 -0.23 -1.33 -0.34 -1.49 -1.37 -1.49 -0.95 0 -1.14 -0.15 -1.37 -1.33 -0.11 -0.72 -0.38 -1.33 -0.57 -1.33 -0.19 0 -0.34 -0.69 -0.34 -1.52 0 -1.49 0.04 -1.52 1.33 -1.52 1.18 0 1.33 0.11 1.33 0.95 0 0.53 0.19 0.95 0.38 0.95 0.23 0 0.53 0.34 0.69 0.80 0.27 0.69 0.42 0.53 1.22 -1.14 0.69 -1.52 1.10 -1.94 1.79 -1.94 0.50 0 0.88 0.08 0.88 0.19 0 0.11 -0.80 1.75 -1.75 3.66 -0.95 1.90 -1.64 3.58 -1.52 3.69 0.15 0.11 3.01 0 6.44 -0.27 6.93 -0.50 23.80 -1.68 52.82 -3.66 27.65 -1.90 39.49 -2.82 41.70 -3.24 1.07 -0.19 7.31 -1.14 13.90 -2.09 6.59 -0.95 20.75 -3.01 31.42 -4.57 10.70 -1.56 24.22 -3.54 30.08 -4.42 5.86 -0.84 11.08 -1.64 11.61 -1.71 l0.95 -0.23 -1.33 -1.14 c-2.09 -1.87 -8.64 -7.84 -11.81 -10.78 -1.56 -1.49 -6.63 -6.09 -11.23 -10.28 -4.61 -4.19 -11.46 -10.43 -15.27 -13.90 -26.96 -24.68 -25.90 -23.76 -28.41 -24.64 -1.33 -0.46 -7.62 -2.48 -14.01 -4.49 -6.40 -2.02 -13.94 -4.42 -16.76 -5.33 -14.66 -4.68 -28.68 -9.14 -31.23 -9.90 -1.56 -0.50 -4.87 -1.52 -7.31 -2.32 -2.48 -0.80 -4.61 -1.33 -4.72 -1.18 -0.15 0.11 1.52 2.25 3.69 4.72 2.17 2.48 8.83 10.21 14.81 17.21 5.98 6.97 13.14 15.38 15.92 18.66 2.78 3.24 4.91 5.98 4.72 6.05 -0.34 0.11 -1.83 -0.72 -11.50 -6.28 -3.58 -2.09 -28.03 -16.07 -31.80 -18.20 l-1.56 -0.88 -7.01 13.94 c-3.88 7.65 -7.27 14.01 -7.50 14.09 -0.95 0.27 -0.50 -1.98 0.88 -4.76 0.76 -1.52 1.64 -2.78 1.90 -2.78 0.30 0 0.53 -0.42 0.53 -0.95 0 -0.53 1.29 -3.54 2.86 -6.66 1.56 -3.16 2.78 -5.71 2.67 -5.71 -0.08 0 -0.53 0.42 -1.03 0.91 -1.03 1.03 -20.22 18.51 -27.91 25.36 -2.93 2.59 -5.41 4.84 -5.52 4.95 -0.15 0.19 -7.81 7.01 -12.60 11.27 -1.29 1.14 -1.37 1.33 -1.22 2.97 l0.23 1.75 -1.37 0 c-1.26 0 -1.37 -0.11 -1.83 -1.75 -0.53 -1.71 -1.56 -3.12 -5.67 -7.77 -1.22 -1.37 -3.62 -4.11 -5.33 -6.09 -1.75 -1.98 -4.38 -4.95 -5.83 -6.59 -1.49 -1.64 -3.05 -3.35 -3.43 -3.81 -0.38 -0.46 -1.26 -1.45 -1.90 -2.17 -0.69 -0.72 -2.17 -2.44 -3.31 -3.85 -1.94 -2.32 -3.66 -4.27 -10.09 -11.58 -1.29 -1.45 -2.89 -3.28 -3.54 -4.04 -0.69 -0.76 -1.22 -1.83 -1.22 -2.36 0 -0.50 0.50 -2.63 1.10 -4.68 0.61 -2.09 1.68 -5.56 2.32 -7.77 0.65 -2.21 1.49 -4.95 1.90 -6.09 0.65 -1.87 1.75 -5.56 5.41 -17.71 0.61 -2.09 1.45 -4.76 1.83 -5.90 0.42 -1.14 1.68 -5.26 2.82 -9.14 1.14 -3.88 2.63 -8.76 3.28 -10.85 0.69 -2.09 1.52 -4.84 1.90 -6.09 0.38 -1.26 1.29 -4.34 2.09 -6.85 2.78 -9.03 4 -13.25 3.85 -13.40 -0.08 -0.08 -6.13 0.72 -13.40 1.79 -7.31 1.10 -14.93 2.21 -16.91 2.48 -1.98 0.30 -7.12 1.07 -11.42 1.71 -4.30 0.65 -9.60 1.41 -11.81 1.71 -2.21 0.30 -6.32 0.91 -9.14 1.33 -2.82 0.42 -7.54 1.14 -10.47 1.56 -2.93 0.42 -6.78 0.99 -8.53 1.29 -1.75 0.30 -3.77 0.57 -4.46 0.57 -1.22 0 -1.29 -0.08 -1.29 -1.37 0 -1.22 0.46 -1.83 4.49 -5.98 2.44 -2.51 4.80 -4.99 5.22 -5.45 2.86 -3.05 6.32 -6.74 10.43 -11.01 2.67 -2.74 6.09 -6.32 7.65 -8 1.56 -1.68 4.30 -4.57 6.09 -6.47 1.79 -1.87 6.32 -6.66 10.09 -10.66 3.77 -3.96 8.80 -9.22 11.16 -11.65 l4.30 -4.42 -13.21 -0.23 c-7.27 -0.15 -20.18 -0.27 -28.68 -0.27 -8.49 0 -18.13 -0.11 -21.40 -0.27 l-5.98 -0.23 -2.36 -5.29 c-1.29 -2.89 -2.51 -5.37 -2.70 -5.48 -0.19 -0.11 -0.34 -0.61 -0.34 -1.14 l0 -0.91 219.73 0 219.73 0 0 146.23 0 146.23 -63.22 0 -63.22 0 0 -1.22 c0 -1.14 0.23 -3.96 1.52 -19.35 0.23 -2.63 0.57 -6.28 0.76 -8.19 0.38 -3.69 0.69 -7.12 1.90 -21.33 0.69 -8.11 1.98 -21.67 2.48 -25.93 l0.15 -1.56 -3.50 0.53 c-1.94 0.30 -11.65 1.71 -21.59 3.16 -9.94 1.45 -23.92 3.50 -31.04 4.53 -7.12 1.07 -16.76 2.48 -21.40 3.16 -7.31 1.07 -8.49 1.29 -8.49 1.87 0 0.61 1.87 12.34 4.91 31.19 0.65 3.88 1.68 10.32 2.32 14.28 0.65 4 1.49 9.29 1.90 11.81 0.42 2.51 0.76 5.14 0.76 5.83 l0 1.22 -10.93 -0.04 c-10.89 0 -10.97 -0.04 -12.68 -0.95z"/>
  <path d="M220.11 223.54 c0 -0.72 2.32 -5.79 6.17 -13.52 5.41 -10.93 6.25 -12.38 7.01 -12.38 0.76 0 0.84 0.11 0.57 0.88 -0.95 2.51 -13.02 26.16 -13.37 26.16 -0.23 0 -0.38 -0.53 -0.38 -1.14z"/>
  <path d="M210.21 222.59 c0 -1.26 0.08 -1.33 1.33 -1.33 1.26 0 1.33 0.08 1.33 1.33 0 1.26 -0.08 1.33 -1.33 1.33 -1.26 0 -1.33 -0.08 -1.33 -1.33z"/>
  <path d="M206.40 214.21 c0 -1.26 0.08 -1.33 1.33 -1.33 1.26 0 1.33 0.08 1.33 1.33 0 1.26 -0.08 1.33 -1.33 1.33 -1.26 0 -1.33 -0.08 -1.33 -1.33z"/>
  <path d="M204.12 209.26 c0 -1.26 0.08 -1.33 1.33 -1.33 1.26 0 1.33 0.08 1.33 1.33 0 1.26 -0.08 1.33 -1.33 1.33 -1.26 0 -1.33 -0.08 -1.33 -1.33z"/>
  <path d="M183.55 207.35 c0 -1.26 0.08 -1.33 1.33 -1.33 1.26 0 1.33 0.08 1.33 1.33 0 1.26 -0.08 1.33 -1.33 1.33 -1.26 0 -1.33 -0.08 -1.33 -1.33z"/>
  <path d="M234.96 193.26 c0 -0.91 0.19 -1.33 0.57 -1.33 0.38 0 0.57 -0.38 0.57 -1.10 0 -0.61 0.27 -1.37 0.57 -1.71 0.30 -0.30 0.57 -0.72 0.57 -0.95 0 -0.23 0.53 -1.52 1.22 -2.89 0.99 -1.98 1.41 -2.48 2.09 -2.48 0.50 0 0.88 0.08 0.88 0.19 0 0.61 -5.79 11.61 -6.09 11.61 -0.23 0 -0.38 -0.61 -0.38 -1.33z"/>
 </g>
 <g fill="#a5d4ef">
  <path d="M304.77 291.82 c-0.50 -0.30 -0.88 -0.84 -0.88 -1.10 0 -0.30 -0.38 -0.53 -0.84 -0.53 -0.69 0 -3.28 -1.45 -4.11 -2.28 -0.11 -0.11 -0.65 -0.42 -1.22 -0.72 -0.61 -0.30 -1.07 -0.69 -1.07 -0.88 0 -0.15 -0.23 -0.30 -0.50 -0.30 -0.27 0 -0.84 -0.30 -1.26 -0.65 -0.38 -0.38 -1.18 -0.91 -1.75 -1.22 -0.61 -0.30 -1.07 -0.69 -1.07 -0.88 0 -0.15 -0.27 -0.30 -0.57 -0.30 -0.30 0 -0.57 -0.15 -0.57 -0.38 0 -0.19 -0.23 -0.38 -0.46 -0.38 -0.46 0 -13.10 -8.07 -14.43 -9.22 -0.30 -0.27 -1.22 -0.84 -1.98 -1.22 -0.76 -0.42 -1.41 -0.88 -1.41 -1.07 0 -0.15 -0.19 -0.30 -0.42 -0.30 -0.76 0 -3.77 -2.06 -3.77 -2.55 0 -0.27 -0.34 -0.50 -0.80 -0.50 -0.65 0 -2.70 -1.14 -3.39 -1.90 -0.11 -0.11 -0.84 -0.50 -1.60 -0.91 -0.76 -0.38 -1.75 -1.03 -2.17 -1.41 -0.42 -0.42 -0.95 -0.72 -1.18 -0.72 -0.19 0 -0.38 -0.15 -0.38 -0.38 0 -0.19 -0.27 -0.38 -0.57 -0.38 -0.30 0 -0.57 -0.27 -0.57 -0.57 0 -0.30 -0.30 -0.57 -0.69 -0.57 -1.07 0 -4.61 -2.40 -4.65 -3.12 0 -0.46 -0.30 -0.69 -0.91 -0.69 -1.52 0 -2.13 -0.42 -2.13 -1.37 0 -1.14 0.30 -1.14 2.09 0.08 0.80 0.53 1.87 1.14 2.36 1.33 0.50 0.19 0.88 0.50 0.88 0.72 0 0.19 0.11 0.34 0.30 0.30 0.27 -0.08 2.32 1.14 2.74 1.60 0.11 0.15 1.56 1.07 3.24 2.09 1.68 1.07 4.38 2.74 5.98 3.81 1.60 1.03 4.84 3.12 7.16 4.57 2.36 1.49 4.49 2.89 4.80 3.16 0.30 0.27 0.53 0.38 0.53 0.23 0 -0.11 0.30 0 0.65 0.27 0.57 0.46 0.61 0.46 0.30 -0.04 -0.30 -0.50 -0.27 -0.50 0.30 -0.04 0.34 0.27 0.65 0.76 0.65 1.07 0 0.30 0.19 0.42 0.42 0.30 0.23 -0.15 0.76 0.08 1.22 0.50 1.10 0.99 6.21 4.27 6.66 4.27 0.23 0 0.46 0.27 0.61 0.57 0.11 0.30 0.46 0.57 0.76 0.57 0.30 0 0.61 0.15 0.69 0.30 0.15 0.42 3.50 2.63 4.46 2.93 0.46 0.11 0.80 0.38 0.80 0.57 0 0.30 1.90 1.56 3.96 2.63 0.61 0.30 1.52 0.95 2.02 1.41 0.50 0.46 1.83 1.29 2.97 1.87 2.59 1.33 3.01 2.09 1.03 2.06 -0.76 0 -1.79 -0.27 -2.25 -0.61z"/>
  <path d="M397.57 291.89 c0 -0.30 0.27 -0.57 0.57 -0.57 0.30 0 0.57 0.27 0.57 0.57 0 0.30 -0.27 0.57 -0.57 0.57 -0.30 0 -0.57 -0.27 -0.57 -0.57z"/>
  <path d="M397.57 289.72 c0 -0.27 0.27 -4.15 0.65 -8.57 0.61 -7.39 0.72 -8.11 1.37 -8.11 0.76 0 0.76 -0.34 -0.11 10.09 -0.53 6.13 -0.69 7.05 -1.33 7.05 -0.30 0 -0.57 -0.23 -0.57 -0.46z"/>
  <path d="M326.70 289.34 c0 -0.27 -0.08 -1.14 -0.19 -1.90 -0.15 -1.26 -0.08 -1.45 0.61 -1.45 0.65 0 0.76 0.23 0.76 1.90 0 1.45 -0.15 1.90 -0.57 1.90 -0.30 0 -0.57 -0.23 -0.61 -0.46z"/>
  <path d="M325.41 280.77 c-0.19 -0.38 -0.34 -1.14 -0.34 -1.71 -0.04 -0.80 0.11 -1.07 0.61 -1.07 0.57 0 0.69 0.30 0.69 1.71 0 1.75 -0.46 2.25 -0.95 1.07z"/>
  <path d="M324.30 274.11 c-0.38 -1.45 -0.27 -1.83 0.53 -1.83 0.61 0 0.76 0.27 0.76 1.33 0 1.52 -0.91 1.87 -1.29 0.50z"/>
  <path d="M399.09 270.57 c0 -1.83 0.08 -2.09 0.76 -2.09 0.61 0 0.76 0.27 0.76 1.26 0 1.79 -0.38 2.93 -0.99 2.93 -0.38 0 -0.53 -0.57 -0.53 -2.09z"/>
  <path d="M399.63 265.39 c0.11 -1.29 0.23 -3.01 0.23 -3.81 0 -1.26 0.11 -1.49 0.80 -1.49 0.80 0 0.84 0.11 0.57 2.97 -0.34 3.85 -0.57 4.65 -1.29 4.65 -0.46 0 -0.53 -0.38 -0.30 -2.32z"/>
  <path d="M400.24 258.88 c0 -0.50 0.19 -3.31 0.46 -6.28 0.38 -4.84 0.53 -5.45 1.14 -5.45 0.38 0 0.69 0.27 0.69 0.69 0 1.07 -0.76 9.33 -0.99 10.66 -0.23 1.41 -1.29 1.71 -1.29 0.38z"/>
  <path d="M246.39 254 c0 -0.19 -0.27 -0.38 -0.57 -0.38 -0.30 0 -0.57 -0.11 -0.57 -0.30 0 -0.15 -0.50 -0.50 -1.14 -0.76 -0.80 -0.38 -1.14 -0.80 -1.14 -1.45 0 -0.76 -0.19 -0.91 -1.14 -0.91 -1.22 0 -3.43 -0.95 -3.43 -1.45 0 -0.19 -0.61 -0.53 -1.33 -0.80 -0.72 -0.27 -1.33 -0.69 -1.33 -0.95 0 -0.30 -0.53 -0.61 -1.18 -0.76 -0.72 -0.15 -1.26 -0.50 -1.37 -0.99 -0.11 -0.50 -0.53 -0.76 -1.07 -0.76 -0.50 0 -1.14 -0.27 -1.49 -0.57 -0.30 -0.30 -0.72 -0.57 -0.95 -0.57 -0.23 0 -0.42 -0.15 -0.42 -0.38 0 -0.19 -0.27 -0.38 -0.57 -0.38 -0.30 0 -0.57 -0.15 -0.57 -0.30 0 -0.15 -0.50 -0.50 -1.14 -0.72 -0.61 -0.23 -1.14 -0.69 -1.14 -1.03 0 -0.38 -0.34 -0.61 -0.95 -0.61 -0.53 0 -1.07 -0.27 -1.18 -0.57 -0.15 -0.30 -0.57 -0.57 -0.95 -0.57 -0.38 0 -0.72 -0.11 -0.72 -0.30 0 -0.15 -0.50 -0.50 -1.14 -0.76 -0.69 -0.30 -1.14 -0.80 -1.14 -1.26 0 -0.57 -0.27 -0.72 -1.14 -0.72 -0.65 0 -1.56 -0.27 -2.06 -0.61 -0.76 -0.50 -4.91 -0.72 -24.49 -1.49 -12.95 -0.53 -29.70 -1.18 -37.24 -1.52 -7.54 -0.30 -16.38 -0.65 -19.61 -0.80 -8.30 -0.27 -8.38 -0.30 -8.38 -1.79 0 -1.18 0.08 -1.26 3.92 -2.70 2.13 -0.80 8.87 -3.43 14.93 -5.83 11.20 -4.42 22.13 -8.68 32.18 -12.57 3.05 -1.14 6.05 -2.32 6.66 -2.59 0.65 -0.27 3.88 -1.52 7.24 -2.78 3.35 -1.26 6.36 -2.40 6.70 -2.55 0.84 -0.30 0.50 -1.87 -0.53 -2.28 -0.46 -0.23 -0.99 -0.76 -1.22 -1.22 -0.19 -0.50 -0.50 -0.88 -0.65 -0.88 -0.19 0 -0.30 -0.34 -0.30 -0.72 0 -0.50 -0.30 -0.80 -0.84 -0.88 -0.65 -0.08 -0.91 -0.42 -0.99 -1.14 -0.08 -0.72 -0.34 -1.07 -0.80 -1.07 -0.76 0 -2.32 -1.64 -2.32 -2.48 0 -0.30 -0.23 -0.57 -0.50 -0.57 -0.72 0 -2.17 -1.64 -2.17 -2.40 0 -0.34 -0.23 -0.65 -0.50 -0.65 -0.61 0 -2.17 -1.60 -2.17 -2.21 0 -0.27 -0.15 -0.46 -0.38 -0.46 -0.19 0 -0.38 -0.23 -0.38 -0.50 0 -0.27 -0.38 -0.65 -0.84 -0.84 -0.61 -0.27 -0.91 -0.76 -0.99 -1.60 -0.11 -0.95 -0.30 -1.26 -0.88 -1.26 -1.07 0 -1.87 -0.88 -1.87 -2.06 0 -0.80 -0.19 -0.99 -0.95 -0.99 -0.61 0 -0.95 -0.23 -0.95 -0.57 0 -0.30 -0.27 -0.57 -0.57 -0.57 -0.34 0 -0.57 -0.34 -0.57 -0.95 0 -0.65 -0.19 -0.95 -0.69 -0.95 -0.88 0 -1.60 -0.72 -1.60 -1.60 0 -0.38 -0.23 -0.69 -0.50 -0.69 -0.80 0 -2.55 -2.06 -2.55 -2.97 0 -0.57 -0.23 -0.84 -0.69 -0.84 -0.88 0 -1.98 -1.14 -1.98 -2.02 0 -0.34 -0.23 -0.65 -0.50 -0.65 -0.53 0 -2.17 -1.56 -2.17 -2.09 0 -0.15 -0.61 -0.80 -1.33 -1.45 -0.84 -0.69 -1.33 -1.49 -1.33 -2.02 0 -0.61 -0.23 -0.91 -0.69 -0.91 -0.88 0 -1.60 -0.72 -1.60 -1.60 0 -0.38 -0.19 -0.69 -0.42 -0.69 -0.53 0 -0.27 -3.77 0.30 -4.15 0.23 -0.11 0.50 -0.99 0.61 -1.94 0.11 -0.91 0.42 -1.75 0.61 -1.83 0.23 -0.08 0.42 -0.50 0.42 -0.88 0 -0.42 0.19 -1.52 0.42 -2.48 0.30 -1.22 0.61 -1.68 1.14 -1.68 0.95 0 0.91 0.53 -0.27 4.07 -0.53 1.64 -1.26 4.07 -1.64 5.45 l-0.72 2.51 1.18 1.29 c0.65 0.72 2.21 2.55 3.50 4 1.29 1.49 3.62 4.11 5.18 5.86 1.56 1.75 3.81 4.38 4.99 5.79 1.18 1.45 2.36 2.86 2.67 3.16 0.27 0.27 1.60 1.75 2.97 3.31 1.37 1.52 2.74 3.05 3.05 3.39 0.30 0.30 2.70 3.05 5.33 6.05 2.63 3.05 5.33 6.13 6.02 6.85 0.72 0.76 2.13 2.44 3.24 3.77 1.29 1.60 2.06 2.25 2.32 1.98 0.65 -0.65 0.88 -0.46 1.14 0.91 0.15 0.72 0.38 1.37 0.57 1.45 0.15 0.08 1.03 1.75 1.90 3.73 0.91 1.98 2.09 4.65 2.70 5.90 1.94 4.07 3.81 8.26 3.81 8.45 0 0.11 0.76 1.79 1.71 3.69 0.95 1.94 1.71 3.88 1.71 4.30 0 0.46 0.27 0.88 0.57 1.03 0.42 0.15 0.57 -0.08 0.57 -0.76 0 -0.91 0.57 -2.40 1.10 -2.82 0.11 -0.11 0.65 -1.14 1.18 -2.28 0.53 -1.14 1.07 -2.13 1.26 -2.21 0.15 -0.08 0.27 -0.46 0.27 -0.88 0 -0.38 0.19 -0.72 0.38 -0.72 0.23 0 0.38 -0.27 0.38 -0.57 0 -0.72 3.01 -6.82 3.47 -6.97 0.19 -0.08 0.34 -0.46 0.34 -0.88 0 -0.38 0.27 -0.72 0.57 -0.72 0.38 0 0.57 -0.38 0.57 -1.10 0 -0.61 0.27 -1.37 0.57 -1.71 0.30 -0.30 0.57 -0.80 0.57 -1.07 0 -0.69 3.05 -6.55 3.47 -6.70 0.19 -0.08 0.34 -0.46 0.34 -0.88 0 -0.38 0.19 -0.72 0.38 -0.72 0.23 0 0.38 -0.30 0.38 -0.72 0 -0.38 1.03 -2.78 2.28 -5.33 2.02 -4 2.40 -4.61 3.24 -4.61 0.72 0 0.88 0.15 0.69 0.65 -0.15 0.38 -3.73 7.62 -7.96 16.11 -4.19 8.49 -8.68 17.48 -9.90 19.99 -1.22 2.51 -2.51 4.84 -2.86 5.18 -0.30 0.30 -0.61 0.84 -0.61 1.14 0 0.30 -0.11 0.88 -0.23 1.29 -0.19 0.61 0.11 0.99 1.68 1.90 1.07 0.65 2.78 1.71 3.81 2.40 1.03 0.65 1.98 1.22 2.17 1.22 0.19 0 0.65 0.34 1.03 0.76 0.38 0.42 0.84 0.76 1.03 0.76 0.19 0 1.10 0.53 2.02 1.14 0.91 0.65 1.83 1.14 2.06 1.14 0.23 0 0.42 0.19 0.42 0.38 0 0.23 0.23 0.38 0.50 0.38 0.30 0 0.84 0.34 1.22 0.76 0.38 0.42 0.84 0.76 1.03 0.76 0.27 0 3.31 1.90 4.68 2.93 0.23 0.19 1.03 0.65 1.83 1.07 0.76 0.42 1.41 0.84 1.41 0.99 0 0.11 0.84 0.69 1.90 1.26 1.03 0.57 1.98 1.18 2.09 1.41 0.15 0.19 0.42 0.27 0.61 0.15 0.19 -0.15 0.34 -0.08 0.34 0.15 0 0.19 0.53 0.69 1.14 1.07 1.49 0.88 1.45 1.26 -0.19 1.26 -0.72 0 -1.33 -0.15 -1.33 -0.38z"/>
  <path d="M401.38 244.86 c0 -1.64 0.11 -1.90 0.76 -1.90 0.57 0 0.76 0.27 0.76 1.07 0 1.60 -0.42 2.74 -0.99 2.74 -0.38 0 -0.53 -0.53 -0.53 -1.90z"/>
  <path d="M401.91 239.65 c0.11 -1.60 0.23 -3.31 0.23 -3.81 0 -0.65 0.23 -0.88 0.80 -0.88 0.76 0 0.80 0.11 0.53 2.78 -0.34 4.04 -0.57 4.84 -1.22 4.84 -0.53 0 -0.57 -0.42 -0.34 -2.93z"/>
  <path d="M402.67 231.65 c0.11 -1.60 0.23 -3.39 0.23 -4 0 -0.84 0.19 -1.07 0.80 -1.07 0.76 0 0.76 0.11 0.50 2.78 -0.15 1.49 -0.30 3.08 -0.38 3.50 -0.04 0.42 -0.11 0.99 -0.11 1.26 -0.04 0.23 -0.30 0.46 -0.65 0.46 -0.57 0 -0.61 -0.38 -0.38 -2.93z"/>
  <path d="M316.72 227.38 c-0.15 -0.61 0 -0.84 0.61 -0.99 0.46 -0.11 7.96 -1.22 16.64 -2.48 8.68 -1.29 22.05 -3.24 29.70 -4.34 33.97 -5.03 41.17 -6.02 41.43 -5.79 0.42 0.46 0.38 3.28 -0.15 7.84 -0.27 2.40 -0.50 4.42 -0.50 4.49 -0.04 0.04 -0.30 0.08 -0.61 0.08 -0.69 0 -0.72 -1.03 -0.15 -6.59 0.23 -2.25 0.34 -4.19 0.27 -4.27 -0.08 -0.11 -10.78 1.37 -23.76 3.28 -12.95 1.87 -27.61 4 -32.52 4.72 -13.71 1.98 -29.06 4.34 -29.93 4.61 -0.61 0.15 -0.88 0 -1.03 -0.57z"/>
  <path d="M216.15 188.24 c1.98 -1.79 2.06 -1.83 2.06 -0.53 0 1.10 -0.08 1.18 -1.41 1.18 -1.37 0 -1.37 0 -0.65 -0.65z"/>
  <path d="M239.15 184.54 c0 -0.76 0.19 -1.37 0.38 -1.37 0.23 0 0.38 -0.23 0.38 -0.53 0 -0.84 3.81 -8.23 4.23 -8.23 0.19 0 0.34 -0.30 0.34 -0.65 -0.04 -0.38 1.56 -3.81 3.50 -7.62 3.01 -5.90 3.66 -6.97 4.42 -6.97 0.46 0 0.84 0.11 0.84 0.30 -0.08 0.72 -13.21 26.12 -13.60 26.28 -0.34 0.08 -0.50 -0.30 -0.50 -1.22z"/>
  <path d="M249.85 157.77 c0.30 -0.34 1.14 -1.18 1.87 -1.83 0.72 -0.61 2.25 -2.02 3.43 -3.12 1.14 -1.07 2.13 -1.83 2.21 -1.64 0.19 0.46 -3.39 7.24 -3.81 7.24 -0.15 0 -0.30 -0.50 -0.30 -1.14 0 -0.88 -0.15 -1.14 -0.76 -1.14 -0.61 0 -0.76 0.27 -0.76 1.14 0 1.03 -0.11 1.14 -1.18 1.14 -1.07 0 -1.14 -0.08 -0.69 -0.65z"/>
  <path d="M164.89 140.33 c0 -0.72 0.19 -1.33 0.38 -1.33 0.23 0 0.38 -0.38 0.38 -0.84 0 -1.18 4.23 -14.93 4.61 -15.08 0.19 -0.08 0.34 -0.72 0.34 -1.45 0 -1.03 0.15 -1.29 0.76 -1.29 0.42 0 0.76 0.19 0.76 0.42 0 0.57 -0.88 3.54 -2.93 10.24 -0.95 3.05 -2.09 6.66 -2.51 8.11 -0.88 2.78 -1.79 3.43 -1.79 1.22z"/>
  <path d="M171.75 118.55 c0 -0.65 0.34 -2.25 0.76 -3.58 0.38 -1.33 1.29 -4.27 1.98 -6.51 0.95 -3.24 1.37 -4.11 1.90 -4.11 0.91 0 0.88 0.30 -0.50 4.76 -1.41 4.57 -1.90 6.21 -1.90 6.47 -0.04 0.08 -0.30 0.99 -0.69 1.94 -0.72 2.13 -1.56 2.63 -1.56 1.03z"/>
  <path d="M176.70 102.25 c0 -1.07 0.15 -1.33 0.76 -1.33 0.61 0 0.72 0.19 0.61 0.95 -0.38 2.09 -1.37 2.36 -1.37 0.38z"/>
  <path d="M177.57 99.13 c0.23 -2.02 2.17 -8.26 2.59 -8.42 0.19 -0.08 0.34 -0.61 0.34 -1.14 0 -1.79 0.42 -2.74 1.18 -2.74 0.88 0 0.91 0.57 0.19 2.74 -0.76 2.28 -2.55 8.15 -3.05 9.94 -0.19 0.57 -0.57 1.03 -0.88 1.03 -0.46 0 -0.53 -0.34 -0.38 -1.41z"/>
  <path d="M182.03 84.88 c0 -1.41 0.76 -4.15 1.14 -4.15 0.15 0 0.38 -0.80 0.50 -1.79 0.11 -0.99 0.38 -1.87 0.61 -1.94 0.23 -0.08 0.42 -0.50 0.42 -0.95 0 -0.46 0.46 -2.44 1.03 -4.34 0.84 -2.82 1.22 -3.54 1.79 -3.54 0.91 0 0.76 0.69 -1.45 7.81 -0.91 2.93 -2.02 6.36 -2.40 7.58 -0.76 2.59 -1.64 3.28 -1.64 1.33z"/>
  <path d="M104.72 77.50 c0 -0.30 0.23 -0.57 0.50 -0.61 0.23 0 0.80 -0.08 1.22 -0.15 3.54 -0.65 4 -0.65 4 0.11 0 0.57 -0.34 0.80 -1.75 0.99 -2.89 0.38 -3.96 0.30 -3.96 -0.34z"/>
  <path d="M110.82 76.77 c0 -0.53 0.53 -0.72 3.73 -1.18 1.41 -0.23 1.60 -0.19 1.60 0.50 0 0.61 -0.34 0.76 -1.98 0.99 -2.89 0.34 -3.35 0.30 -3.35 -0.30z"/>
  <path d="M118.43 75.63 c0 -0.61 0.69 -0.80 4.95 -1.37 1.56 -0.23 3.28 -0.50 3.81 -0.57 1.71 -0.30 6.28 -0.95 6.78 -0.95 0.23 0 0.46 0.30 0.46 0.69 0 0.57 -0.95 0.80 -7.50 1.71 -8.68 1.22 -8.49 1.18 -8.49 0.50z"/>
  <path d="M136.71 72.93 c0 -0.57 0.08 -0.61 7.43 -1.71 6.05 -0.91 5.90 -0.91 5.90 -0.08 0 0.61 -0.80 0.80 -6.17 1.52 -7.27 0.99 -7.16 0.99 -7.16 0.27z"/>
  <path d="M151.56 70.64 c0 -0.53 0.50 -0.65 4.30 -1.14 1.60 -0.23 1.79 -0.15 1.79 0.50 0 0.61 -0.38 0.76 -1.98 0.99 -3.16 0.34 -4.11 0.30 -4.11 -0.34z"/>
  <path d="M159.56 69.54 c0 -0.65 0.88 -0.84 8.87 -1.94 1.03 -0.15 2.13 -0.30 2.48 -0.38 0.38 -0.04 1.56 -0.23 2.67 -0.38 1.79 -0.23 1.98 -0.19 1.98 0.46 0 0.61 -0.84 0.80 -7.31 1.75 -8.42 1.22 -8.68 1.22 -8.68 0.50z"/>
  <path d="M177.84 66.87 c0 -0.50 1.07 -0.99 2.21 -0.99 0.23 0 0.46 0.34 0.46 0.76 0 0.61 -0.27 0.76 -1.33 0.76 -0.88 0 -1.33 -0.19 -1.33 -0.53z"/>
  <path d="M182.03 66.07 c0 -0.30 0.23 -0.57 0.50 -0.61 0.23 0 0.84 -0.08 1.33 -0.11 0.61 -0.08 0.84 0.11 0.84 0.61 0 0.53 -0.30 0.69 -1.33 0.69 -0.91 0 -1.33 -0.19 -1.33 -0.57z"/>
  <path d="M186.98 65.35 c0 -0.27 0.38 -0.61 0.88 -0.76 1.29 -0.34 1.41 -0.30 1.41 0.53 0 0.61 -0.27 0.76 -1.14 0.76 -0.72 0 -1.14 -0.19 -1.14 -0.53z"/>
  <path d="M146.99 27.42 c0 -1.03 0.11 -1.14 1.14 -1.14 1.03 0 1.10 0.08 0.72 0.72 -0.27 0.38 -0.76 0.88 -1.14 1.14 -0.65 0.38 -0.72 0.30 -0.72 -0.72z"/>
  <path d="M133.67 12.95 c0 -0.69 0.27 -0.76 2.28 -0.76 2.02 0 2.28 0.08 2.28 0.76 0 0.69 -0.27 0.76 -2.28 0.76 -2.02 0 -2.28 -0.08 -2.28 -0.76z"/>
  <path d="M148.14 13.14 c0 -0.53 0.34 -0.65 1.71 -0.65 1.37 0 1.71 0.11 1.71 0.65 0 0.42 -0.46 0.57 -1.71 0.57 -1.26 0 -1.71 -0.15 -1.71 -0.57z"/>
  <path d="M102.44 12.80 c0 -0.61 1.22 -0.99 2.28 -0.72 1.41 0.38 0.88 1.26 -0.76 1.26 -1.03 0 -1.52 -0.15 -1.52 -0.53z"/>
  <path d="M107.01 12.80 c0 -0.69 1.22 -0.91 3.62 -0.76 1.07 0.08 2.13 0.11 2.40 0.11 0.23 0.04 0.46 0.30 0.46 0.61 0 0.46 -0.61 0.57 -3.24 0.57 -2.51 0 -3.24 -0.11 -3.24 -0.53z"/>
  <path d="M116.91 12.76 c0 -0.57 0.27 -0.65 2.09 -0.65 1.83 0 2.09 0.08 2.09 0.65 0 0.46 -0.50 0.57 -2.09 0.57 -1.60 0 -2.09 -0.11 -2.09 -0.57z"/>
  <path d="M89.34 11.96 c-0.11 -0.34 -0.23 -0.91 -0.23 -1.33 0 -0.38 -0.15 -0.72 -0.34 -0.72 -0.38 0 -4.23 -8.42 -4.23 -9.29 0 -0.34 0.30 -0.61 0.76 -0.61 0.42 0 0.72 0.11 0.69 0.30 -0.04 0.15 0.38 1.14 0.91 2.17 0.53 1.07 1.71 3.58 2.59 5.64 0.91 2.06 1.87 3.69 2.13 3.69 0.30 0 0.53 0.19 0.53 0.38 0 0.65 -2.55 0.46 -2.82 -0.23z"/>
 </g>
 <g fill="#95c7ee">
  <path d="M303.51 291.25 c-0.95 -0.69 -1.75 -1.37 -1.83 -1.52 -0.08 -0.15 -0.34 -0.30 -0.61 -0.30 -0.27 0 -0.80 -0.30 -1.22 -0.69 -0.38 -0.34 -1.18 -0.88 -1.75 -1.10 -0.61 -0.27 -1.07 -0.65 -1.07 -0.88 0 -0.19 -0.23 -0.38 -0.50 -0.38 -0.53 0 -6.85 -4.15 -7.05 -4.65 -0.08 -0.15 -0.38 -0.30 -0.69 -0.30 -0.30 0 -0.53 -0.15 -0.53 -0.38 0 -0.19 -0.27 -0.38 -0.57 -0.38 -0.30 0 -0.57 -0.15 -0.57 -0.34 0 -0.19 -0.38 -0.42 -0.88 -0.57 -0.46 -0.11 -1.22 -0.53 -1.68 -0.99 -0.46 -0.42 -1.03 -0.76 -1.26 -0.76 -0.19 0 -0.38 -0.15 -0.38 -0.38 0 -0.19 -0.27 -0.38 -0.57 -0.38 -0.30 0 -0.57 -0.15 -0.57 -0.38 0 -0.19 -0.27 -0.38 -0.57 -0.38 -0.30 0 -0.88 -0.30 -1.26 -0.65 -0.38 -0.38 -1.33 -1.03 -2.09 -1.41 -0.76 -0.42 -1.41 -0.88 -1.41 -1.07 0 -0.15 -0.19 -0.30 -0.38 -0.30 -0.42 0 -4.57 -2.55 -4.95 -3.01 -0.11 -0.11 -0.84 -0.53 -1.60 -0.95 -0.76 -0.38 -1.75 -1.03 -2.17 -1.41 -0.42 -0.42 -0.95 -0.72 -1.18 -0.72 -0.19 0 -0.38 -0.15 -0.38 -0.34 0 -0.19 -0.38 -0.42 -0.88 -0.57 -0.46 -0.11 -1.22 -0.53 -1.68 -0.99 -0.46 -0.42 -1.03 -0.76 -1.26 -0.76 -0.19 0 -0.38 -0.15 -0.38 -0.38 0 -0.19 -0.27 -0.38 -0.57 -0.38 -0.30 0 -0.57 -0.15 -0.57 -0.38 0 -0.19 -0.23 -0.38 -0.53 -0.38 -0.30 0 -0.61 -0.11 -0.69 -0.27 -0.04 -0.19 -0.76 -0.61 -1.52 -1.03 -0.76 -0.38 -1.75 -1.03 -2.17 -1.41 -0.42 -0.42 -0.88 -0.72 -1.03 -0.72 -0.42 0 -7.58 -4.65 -7.69 -4.99 -0.08 -0.19 -0.38 -0.34 -0.69 -0.34 -0.30 0 -0.53 -0.15 -0.53 -0.38 0 -0.19 -0.27 -0.38 -0.57 -0.38 -0.30 0 -0.57 -0.15 -0.57 -0.38 0 -0.19 -0.23 -0.38 -0.50 -0.38 -0.42 0 -4.34 -2.44 -4.84 -3.01 -0.11 -0.11 -0.84 -0.57 -1.60 -0.95 -0.80 -0.42 -1.45 -0.88 -1.45 -1.07 0 -0.15 -0.23 -0.30 -0.50 -0.30 -0.27 0 -0.84 -0.30 -1.26 -0.72 -0.42 -0.38 -1.14 -0.80 -1.56 -0.95 -0.38 -0.11 -1.07 -0.53 -1.49 -0.91 -0.42 -0.34 -1.37 -0.95 -2.13 -1.37 -0.80 -0.38 -1.71 -0.99 -2.09 -1.33 -0.38 -0.34 -1.33 -0.91 -2.09 -1.33 -0.80 -0.38 -1.75 -1.03 -2.17 -1.41 -0.42 -0.42 -0.95 -0.72 -1.18 -0.72 -0.19 0 -0.38 -0.15 -0.38 -0.38 0 -0.19 -0.19 -0.38 -0.38 -0.38 -0.88 0 -5.29 -2.82 -5.45 -3.50 -0.27 -1.03 0.95 -0.88 3.08 0.38 1.83 1.03 13.86 8.64 22.54 14.24 6.25 4.04 16.41 10.55 27.11 17.40 11.27 7.24 21.33 13.75 31.91 20.68 l8.57 5.64 -1.71 0 c-1.29 -0.04 -2.13 -0.34 -3.43 -1.22z"/>
  <path d="M326.81 289.53 c-0.23 -1.64 -1.03 -6.66 -1.75 -11.16 -7.20 -44.10 -8.34 -51.41 -8.15 -51.60 0.15 -0.19 12.87 -2.13 29.63 -4.57 4.91 -0.72 20.18 -2.93 33.85 -4.95 13.71 -1.98 24.98 -3.62 25.06 -3.62 0.19 0 0.11 1.68 -0.11 2.59 -0.30 1.10 -1.29 1.10 -1.29 -0.04 l0 -0.88 -5.98 0.88 c-3.31 0.50 -9.60 1.41 -14.01 2.02 -17.37 2.44 -65.42 9.52 -65.54 9.67 -0.08 0.04 4.04 25.51 7.84 48.63 1.26 7.65 2.28 14.36 2.28 14.93 0 0.76 -0.19 1.03 -0.72 1.03 -0.57 0 -0.76 -0.46 -1.10 -2.93z"/>
  <path d="M397.19 290.98 c0 -1.33 0.11 -1.56 0.80 -1.56 0.65 0 0.76 0.19 0.65 1.41 -0.08 1.03 -0.30 1.49 -0.76 1.56 -0.57 0.11 -0.69 -0.15 -0.69 -1.41z"/>
  <path d="M397.57 286.75 c0 -1.64 0.11 -1.90 0.76 -1.90 0.57 0 0.76 0.27 0.76 1.07 0 1.60 -0.42 2.74 -0.99 2.74 -0.38 0 -0.53 -0.53 -0.53 -1.90z"/>
  <path d="M397.95 282.18 c0 -1.64 0.11 -1.90 0.76 -1.90 0.57 0 0.76 0.27 0.76 1.07 0 1.60 -0.42 2.74 -0.99 2.74 -0.38 0 -0.53 -0.53 -0.53 -1.90z"/>
  <path d="M398.33 277.99 c0 -1.64 0.11 -1.90 0.76 -1.90 0.57 0 0.76 0.27 0.76 1.07 0 1.60 -0.42 2.74 -0.99 2.74 -0.38 0 -0.53 -0.53 -0.53 -1.90z"/>
  <path d="M398.71 273.42 c0 -1.64 0.11 -1.90 0.76 -1.90 0.57 0 0.76 0.27 0.76 1.07 0 1.60 -0.42 2.74 -0.99 2.74 -0.38 0 -0.53 -0.53 -0.53 -1.90z"/>
  <path d="M399.09 269.05 c0 -1.45 0.11 -1.71 0.76 -1.71 0.80 0 0.99 0.88 0.53 2.59 -0.42 1.56 -1.29 0.99 -1.29 -0.88z"/>
  <path d="M399.47 265.05 c0 -1.64 0.11 -1.90 0.76 -1.90 0.57 0 0.76 0.27 0.76 1.07 0 1.60 -0.42 2.74 -0.99 2.74 -0.38 0 -0.53 -0.53 -0.53 -1.90z"/>
  <path d="M399.85 260.67 c0 -1.45 0.11 -1.71 0.76 -1.71 0.80 0 0.99 0.88 0.53 2.59 -0.42 1.56 -1.29 0.99 -1.29 -0.88z"/>
  <path d="M400.24 256.10 c0 -1.45 0.11 -1.71 0.76 -1.71 0.80 0 0.99 0.88 0.53 2.59 -0.42 1.56 -1.29 0.99 -1.29 -0.88z"/>
  <path d="M400.62 251.91 c0 -1.45 0.11 -1.71 0.76 -1.71 0.80 0 0.99 0.88 0.53 2.59 -0.42 1.56 -1.29 0.99 -1.29 -0.88z"/>
  <path d="M401 247.72 c0 -1.45 0.11 -1.71 0.76 -1.71 0.80 0 0.99 0.88 0.53 2.59 -0.42 1.56 -1.29 0.99 -1.29 -0.88z"/>
  <path d="M401.38 243.53 c0 -1.45 0.11 -1.71 0.76 -1.71 0.80 0 0.99 0.88 0.53 2.59 -0.42 1.56 -1.29 0.99 -1.29 -0.88z"/>
  <path d="M401.76 239.34 c0 -1.45 0.11 -1.71 0.76 -1.71 0.80 0 0.99 0.88 0.53 2.59 -0.42 1.56 -1.29 0.99 -1.29 -0.88z"/>
  <path d="M402.14 235.53 c0 -1.45 0.11 -1.71 0.76 -1.71 0.80 0 0.99 0.88 0.53 2.59 -0.42 1.56 -1.29 0.99 -1.29 -0.88z"/>
  <path d="M209.07 233.82 c0 -0.65 0.27 -0.76 1.83 -0.76 2.32 0 3.50 0.34 3.50 0.99 0 0.42 -0.65 0.53 -2.67 0.53 -2.40 0 -2.67 -0.08 -2.67 -0.76z"/>
  <path d="M198.40 233.44 c0 -0.69 0.27 -0.76 2.40 -0.76 2.89 0 4.07 0.30 4.07 0.99 0 0.42 -0.72 0.53 -3.24 0.53 -2.97 0 -3.24 -0.08 -3.24 -0.76z"/>
  <path d="M189.65 233.06 c0 -0.65 0.27 -0.76 2.02 -0.76 2.51 0 3.69 0.34 3.69 0.99 0 0.42 -0.69 0.53 -2.86 0.53 -2.59 0 -2.86 -0.08 -2.86 -0.76z"/>
  <path d="M179.74 232.68 c0 -0.65 0.27 -0.76 2.02 -0.76 2.51 0 3.69 0.34 3.69 0.99 0 0.42 -0.69 0.53 -2.86 0.53 -2.59 0 -2.86 -0.08 -2.86 -0.76z"/>
  <path d="M169.84 232.30 c0 -0.65 0.27 -0.76 2.02 -0.76 2.51 0 3.69 0.34 3.69 0.99 0 0.42 -0.69 0.53 -2.86 0.53 -2.59 0 -2.86 -0.08 -2.86 -0.76z"/>
  <path d="M402.52 231.34 c0 -1.45 0.11 -1.71 0.76 -1.71 0.80 0 0.99 0.88 0.53 2.59 -0.42 1.56 -1.29 0.99 -1.29 -0.88z"/>
  <path d="M159.94 231.92 c0 -0.65 0.27 -0.76 2.02 -0.76 2.51 0 3.69 0.34 3.69 0.99 0 0.42 -0.69 0.53 -2.86 0.53 -2.59 0 -2.86 -0.08 -2.86 -0.76z"/>
  <path d="M215.50 230.89 c-0.46 -1.03 -1.41 -3.12 -2.13 -4.68 -0.76 -1.56 -1.64 -3.54 -2.02 -4.38 -0.99 -2.28 -2.21 -4.95 -4.04 -8.87 -0.91 -1.94 -1.68 -3.58 -1.68 -3.66 0 -0.11 -0.80 -1.83 -1.75 -3.85 -0.95 -2.02 -1.68 -3.96 -1.60 -4.34 0.08 -0.34 1.68 -2.02 3.54 -3.66 6.59 -5.83 22.20 -19.88 36.67 -33.05 8.04 -7.31 14.66 -13.21 14.74 -13.14 0.08 0.08 -2.25 4.76 -5.18 10.40 -5.10 9.86 -21.63 42.96 -30.96 62 -2.44 4.95 -4.49 9.03 -4.61 9.03 -0.08 0 -0.53 -0.80 -0.99 -1.79z"/>
  <path d="M150.80 231.53 c0 -0.65 0.27 -0.76 2.02 -0.76 2.51 0 3.69 0.34 3.69 0.99 0 0.42 -0.69 0.53 -2.86 0.53 -2.59 0 -2.86 -0.08 -2.86 -0.76z"/>
  <path d="M142.04 231.15 c0 -0.65 0.27 -0.76 1.83 -0.76 2.32 0 3.50 0.34 3.50 0.99 0 0.42 -0.65 0.53 -2.67 0.53 -2.40 0 -2.67 -0.08 -2.67 -0.76z"/>
  <path d="M133.67 230.77 c0 -0.65 0.27 -0.76 2.02 -0.76 2.51 0 3.69 0.34 3.69 0.99 0 0.42 -0.69 0.53 -2.86 0.53 -2.59 0 -2.86 -0.08 -2.86 -0.76z"/>
  <path d="M126.13 229.75 l0.11 -1.37 6.28 -2.44 c3.47 -1.33 8.26 -3.20 10.66 -4.15 2.40 -0.91 4.65 -1.68 5.03 -1.68 0.34 0 0.69 -0.15 0.76 -0.34 0.15 -0.38 27.46 -11.16 44.63 -17.59 4.95 -1.87 6.25 -2.48 5.52 -2.63 -0.69 -0.15 -0.95 -0.50 -1.03 -1.45 -0.11 -0.99 -0.30 -1.22 -0.99 -1.22 -1.07 0 -2.13 -1.10 -2.13 -2.21 0 -0.57 -0.23 -0.84 -0.69 -0.84 -0.88 0 -1.98 -1.14 -1.98 -2.02 0 -0.34 -0.19 -0.65 -0.38 -0.65 -0.80 0 -2.67 -2.06 -2.67 -2.93 0 -0.57 -0.23 -0.88 -0.69 -0.88 -0.99 0 -1.60 -0.76 -1.60 -1.98 0 -0.88 -0.15 -1.07 -0.88 -1.07 -1.18 0 -1.79 -0.69 -1.79 -1.98 0 -0.88 -0.15 -1.07 -0.88 -1.07 -1.10 0 -2.17 -1.10 -2.17 -2.21 0 -0.57 -0.23 -0.84 -0.69 -0.84 -0.99 0 -1.98 -1.22 -1.98 -2.40 0 -0.80 -0.19 -1.03 -0.88 -1.03 -1.10 0 -1.79 -0.69 -1.79 -1.79 0 -0.61 -0.23 -0.88 -0.69 -0.88 -0.99 0 -1.98 -1.22 -1.98 -2.40 0 -0.84 -0.19 -1.03 -0.88 -1.03 -1.10 0 -2.17 -1.10 -2.17 -2.21 0 -0.57 -0.23 -0.84 -0.69 -0.84 -0.99 0 -1.60 -0.76 -1.60 -1.98 0 -0.88 -0.15 -1.07 -0.88 -1.07 -1.18 0 -1.79 -0.69 -1.79 -1.98 0 -0.88 -0.15 -1.07 -0.88 -1.07 -1.10 0 -1.79 -0.69 -1.79 -1.75 0 -0.61 -0.27 -0.91 -0.84 -0.99 -0.76 -0.11 -0.88 -0.38 -0.99 -1.90 -0.08 -1.41 0.99 -5.41 5.26 -19.42 2.97 -9.71 6.13 -20.03 7.05 -22.96 2.97 -9.79 9.63 -31.53 11.92 -38.84 1.22 -3.96 2.21 -7.27 2.21 -7.27 -0.04 -0.04 -8.42 1.18 -18.70 2.70 -68.62 10.21 -69.12 10.28 -69.12 9.25 0 -0.27 -0.61 -4.42 -1.33 -9.25 -2.25 -14.74 -8.19 -56.13 -8.19 -57.12 0 -0.53 -0.23 -0.95 -0.50 -0.95 -0.69 0 -1.41 -1.64 -1.41 -3.05 0 -1.83 0.72 -1.33 1.90 1.29 l1.10 2.40 6.78 0.27 c3.73 0.11 14.17 0.27 23.15 0.27 9.03 0.04 22.09 0.15 29.06 0.27 l12.68 0.19 -5.45 5.56 c-3.01 3.05 -8.53 8.83 -12.30 12.80 -3.77 4 -8.30 8.80 -10.09 10.66 -1.79 1.90 -4.53 4.80 -6.09 6.47 -1.56 1.68 -4.99 5.26 -7.65 8 -2.63 2.70 -5.86 6.13 -7.24 7.58 -1.33 1.49 -4.57 4.84 -7.16 7.54 -2.59 2.67 -4.99 5.22 -5.29 5.67 -0.53 0.76 -0.50 0.80 0.53 0.61 1.98 -0.38 8.38 -1.37 25.86 -3.88 9.44 -1.37 27.04 -3.96 39.15 -5.75 12.11 -1.83 22.09 -3.20 22.20 -3.12 0.15 0.19 -5.75 19.76 -12.99 43.15 -8.45 27.23 -14.28 46.76 -14.01 47.14 0.23 0.42 28.26 32.45 31.19 35.68 3.73 4.11 8.15 9.37 8.15 9.75 0 0.23 -3.31 1.68 -7.31 3.20 -4.04 1.52 -10.59 4.04 -14.59 5.60 -3.96 1.52 -9.71 3.77 -12.76 4.95 -3.05 1.18 -11.27 4.38 -18.28 7.16 -7.01 2.78 -14.55 5.71 -16.72 6.55 -3.66 1.45 -3.88 1.56 -2.74 1.83 0.65 0.11 1.18 0.50 1.18 0.80 0 0.38 -0.53 0.53 -2.13 0.53 l-2.09 0 0.11 -1.41z"/>
  <path d="M402.90 226.97 c0 -1.64 0.11 -1.90 0.76 -1.90 0.57 0 0.76 0.27 0.76 1.07 0 1.60 -0.42 2.74 -0.99 2.74 -0.38 0 -0.53 -0.53 -0.53 -1.90z"/>
  <path d="M403.28 222.78 c0 -1.26 0.11 -1.52 0.76 -1.52 0.80 0 0.95 0.61 0.53 2.21 -0.42 1.49 -1.29 1.03 -1.29 -0.69z"/>
  <path d="M403.66 218.97 c0 -1.26 0.11 -1.52 0.76 -1.52 0.80 0 0.95 0.61 0.53 2.21 -0.42 1.49 -1.29 1.03 -1.29 -0.69z"/>
  <path d="M85.95 4.76 c-0.72 -1.49 -0.88 -3.62 -0.27 -3.62 0.34 0 1.56 2.13 2.28 4 0.30 0.84 0.27 0.95 -0.50 0.95 -0.65 0 -1.07 -0.38 -1.52 -1.33z"/>
 </g>
 <g fill="#80c0ee">
  <path d="M224.79 291.89 c-0.27 -0.30 -0.50 -1.07 -0.50 -1.71 l0 -1.14 2.86 0 c2.17 0 2.86 0.11 2.86 0.53 0 0.53 2.97 0.99 6.32 0.99 1.52 0 1.68 0.08 1.68 0.95 l0 0.95 -6.36 0 c-5.03 -0.04 -6.51 -0.15 -6.85 -0.57z"/>
  <path d="M238.39 291.55 c0 -0.88 0.19 -0.95 2.44 -1.18 3.35 -0.38 4.80 0 4.80 1.18 0 0.91 -0.04 0.91 -3.62 0.91 -3.58 0 -3.62 0 -3.62 -0.91z"/>
  <path d="M246.01 291.55 c0 -0.72 0.23 -0.95 1.07 -1.10 1.71 -0.30 12.60 -0.34 15.80 -0.08 2.78 0.27 2.93 0.30 2.93 1.18 l0 0.91 -9.90 0 -9.90 0 0 -0.91z"/>
  <path d="M267.33 291.51 c0 -0.84 0.15 -0.95 1.52 -0.95 1.37 0 1.52 0.11 1.52 0.95 0 0.88 -0.15 0.95 -1.52 0.95 -1.37 0 -1.52 -0.08 -1.52 -0.95z"/>
  <path d="M271.52 291.51 c0 -0.91 0.11 -0.95 2.09 -0.95 1.98 0 2.09 0.04 2.09 0.95 0 0.91 -0.11 0.95 -2.09 0.95 -1.98 0 -2.09 -0.04 -2.09 -0.95z"/>
  <path d="M303.89 291.89 c-0.76 -0.91 -9.37 -6.28 -10.05 -6.28 -0.99 0 -2.13 -0.72 -2.13 -1.33 0 -0.65 -3.69 -3.24 -4.65 -3.24 -0.38 0 -0.69 -0.19 -0.69 -0.38 0 -0.57 -6.78 -4.95 -7.65 -4.95 -0.46 0 -0.72 -0.27 -0.72 -0.76 0 -0.42 -0.23 -0.76 -0.50 -0.76 -0.53 0 -6.51 -3.69 -7.58 -4.72 -0.38 -0.34 -0.80 -0.61 -0.95 -0.61 -0.38 0 -11.88 -7.43 -12.30 -7.92 -0.11 -0.15 -0.84 -0.61 -1.60 -0.99 -0.80 -0.42 -1.45 -0.88 -1.45 -1.07 0 -0.15 -0.23 -0.30 -0.46 -0.30 -0.61 0 -15.31 -9.44 -15.46 -9.90 -0.08 -0.23 -0.30 -0.38 -0.53 -0.38 -0.46 0 -6.93 -4 -7.65 -4.72 -0.27 -0.27 -0.72 -0.57 -1.10 -0.69 -0.34 -0.15 -2.09 -1.22 -3.88 -2.36 -1.83 -1.18 -3.39 -2.13 -3.47 -2.13 -0.11 0 -0.19 0.42 -0.19 0.95 0 0.53 -0.34 1.33 -0.76 1.79 -0.46 0.50 -0.76 1.37 -0.76 2.09 0 1.18 -0.08 1.26 -1.29 1.26 l-1.26 0 -0.27 -3.31 c-0.46 -5.83 -0.53 -6.21 -1.79 -6.21 -0.84 0 -1.10 -0.19 -1.10 -0.76 0 -1.14 2.28 -0.99 4.49 0.27 2.17 1.26 14.66 9.18 28.90 18.32 5.83 3.73 15.46 9.94 21.44 13.79 20.75 13.29 39.22 25.40 39.22 25.70 0 0.46 -3.35 0.15 -3.81 -0.38z"/>
  <path d="M326.40 284.96 c-4.68 -28.68 -9.18 -56.74 -9.18 -57.50 0 -0.46 0.19 -0.88 0.42 -0.88 0.23 0 5.48 -0.76 11.69 -1.71 13.10 -1.98 41.97 -6.17 53.58 -7.81 4.42 -0.61 10.89 -1.56 14.43 -2.09 8.64 -1.29 8.19 -1.33 8 0.69 -0.42 3.66 -0.53 4.04 -1.41 4.19 l-0.84 0.15 0.88 0.08 c0.61 0.04 0.84 0.27 0.84 0.91 -0.04 2.70 -1.41 3.58 -1.60 0.99 l-0.11 -1.56 -3.50 5.86 c-12.53 20.94 -17.78 29.78 -22.77 38.20 -3.08 5.26 -8.11 13.67 -11.12 18.77 l-5.48 9.22 -16.30 0 -16.30 0 -1.22 -7.50z"/>
  <path d="M221.25 291.02 c0 -0.38 -0.27 -3.50 -0.61 -6.97 -0.30 -3.43 -0.50 -6.63 -0.42 -7.08 0.08 -0.50 0.04 -0.88 -0.08 -0.88 -0.23 0 -1.22 -9.25 -1.18 -11.31 0 -0.72 0.19 -0.88 1.29 -0.88 l1.26 0 0.30 3.50 c0.15 1.90 0.38 3.28 0.53 3.01 0.19 -0.27 0.88 -0.42 1.60 -0.34 1.26 0.11 1.29 0.19 1.41 1.94 0.08 0.99 0.27 1.79 0.50 1.79 0.19 0 0.34 0.61 0.34 1.33 0 1.22 -0.08 1.33 -1.14 1.33 -0.99 0 -1.14 0.11 -1.14 1.10 0 0.61 -0.19 1.18 -0.46 1.26 -0.34 0.11 -0.34 1.33 0 5.10 0.27 2.70 0.46 5.56 0.46 6.36 0 1.37 -0.04 1.41 -1.33 1.41 -1.03 0 -1.33 -0.15 -1.33 -0.69z"/>
  <path d="M397.19 289.80 c0 -1.64 0.11 -1.90 0.76 -1.90 0.57 0 0.76 0.27 0.76 1.07 0 1.60 -0.42 2.74 -0.99 2.74 -0.38 0 -0.53 -0.53 -0.53 -1.90z"/>
  <path d="M397.57 285.42 c0 -1.45 0.11 -1.71 0.76 -1.71 0.80 0 0.99 0.88 0.53 2.59 -0.42 1.56 -1.29 0.99 -1.29 -0.88z"/>
  <path d="M397.95 280.85 c0 -1.45 0.11 -1.71 0.76 -1.71 0.80 0 0.99 0.88 0.53 2.59 -0.42 1.56 -1.29 0.99 -1.29 -0.88z"/>
  <path d="M398.33 276.66 c0 -1.45 0.11 -1.71 0.76 -1.71 0.80 0 0.99 0.88 0.53 2.59 -0.42 1.56 -1.29 0.99 -1.29 -0.88z"/>
  <path d="M248.67 276.66 c0 -1.26 0.08 -1.33 1.33 -1.33 1.26 0 1.33 0.08 1.33 1.33 0 1.26 -0.08 1.33 -1.33 1.33 -1.26 0 -1.33 -0.08 -1.33 -1.33z"/>
  <path d="M398.71 272.28 c0 -1.26 0.11 -1.52 0.76 -1.52 0.80 0 0.95 0.61 0.53 2.21 -0.42 1.49 -1.29 1.03 -1.29 -0.69z"/>
  <path d="M399.09 268.09 c0 -1.26 0.11 -1.52 0.76 -1.52 0.80 0 0.95 0.61 0.53 2.21 -0.42 1.49 -1.29 1.03 -1.29 -0.69z"/>
  <path d="M399.47 263.90 c0 -1.26 0.11 -1.52 0.76 -1.52 0.80 0 0.95 0.61 0.53 2.21 -0.42 1.49 -1.29 1.03 -1.29 -0.69z"/>
  <path d="M218.59 262.19 c0 -1.26 0.08 -1.33 1.33 -1.33 1.26 0 1.33 0.08 1.33 1.33 0 1.26 -0.08 1.33 -1.33 1.33 -1.26 0 -1.33 -0.08 -1.33 -1.33z"/>
  <path d="M399.85 259.52 c0 -1.45 0.11 -1.71 0.76 -1.71 0.80 0 0.99 0.88 0.53 2.59 -0.42 1.56 -1.29 0.99 -1.29 -0.88z"/>
  <path d="M218.21 258.76 c0 -1.71 0 -1.71 1.33 -1.71 1.33 0 1.33 0 1.33 1.71 0 1.71 0 1.71 -1.33 1.71 -1.33 0 -1.33 0 -1.33 -1.71z"/>
  <path d="M400.24 255.15 c0 -1.26 0.11 -1.52 0.76 -1.52 0.80 0 0.95 0.61 0.53 2.21 -0.42 1.49 -1.29 1.03 -1.29 -0.69z"/>
  <path d="M400.62 250.96 c0 -1.26 0.11 -1.52 0.76 -1.52 0.80 0 0.95 0.61 0.53 2.21 -0.42 1.49 -1.29 1.03 -1.29 -0.69z"/>
  <path d="M217.44 250 l0 -2.09 1.33 0 1.33 0 0 2.09 0 2.09 -1.33 0 -1.33 0 0 -2.09z"/>
  <path d="M401 246.58 c0 -1.45 0.11 -1.71 0.76 -1.71 0.80 0 0.99 0.88 0.53 2.59 -0.42 1.56 -1.29 0.99 -1.29 -0.88z"/>
  <path d="M217.06 246.20 c0 -1.26 0.08 -1.33 1.33 -1.33 1.26 0 1.33 0.08 1.33 1.33 0 1.26 -0.08 1.33 -1.33 1.33 -1.26 0 -1.33 -0.08 -1.33 -1.33z"/>
  <path d="M401.38 242.58 c0 -1.26 0.11 -1.52 0.76 -1.52 0.80 0 0.95 0.61 0.53 2.21 -0.42 1.49 -1.29 1.03 -1.29 -0.69z"/>
  <path d="M401.76 238.39 c0 -1.26 0.11 -1.52 0.76 -1.52 0.80 0 0.95 0.61 0.53 2.21 -0.42 1.49 -1.29 1.03 -1.29 -0.69z"/>
  <path d="M402.14 234.39 c0 -1.45 0.11 -1.71 0.76 -1.71 0.80 0 0.99 0.88 0.53 2.59 -0.42 1.56 -1.29 0.99 -1.29 -0.88z"/>
  <path d="M203.74 233.82 c0 -0.69 0.27 -0.76 2.97 -0.76 3.43 0 4.65 0.27 4.65 0.99 0 0.42 -0.84 0.53 -3.81 0.53 -3.54 0 -3.81 -0.04 -3.81 -0.76z"/>
  <path d="M193.83 233.44 c0 -0.69 0.27 -0.76 2.59 -0.76 3.05 0 4.27 0.30 4.27 0.99 0 0.42 -0.76 0.53 -3.43 0.53 -3.16 0 -3.43 -0.04 -3.43 -0.76z"/>
  <path d="M184.69 233.06 c0 -0.69 0.27 -0.76 2.78 -0.76 3.24 0 4.46 0.27 4.46 0.99 0 0.42 -0.80 0.53 -3.62 0.53 -3.35 0 -3.62 -0.04 -3.62 -0.76z"/>
  <path d="M174.79 232.68 c0 -0.69 0.27 -0.76 2.78 -0.76 3.24 0 4.46 0.27 4.46 0.99 0 0.42 -0.80 0.53 -3.62 0.53 -3.35 0 -3.62 -0.04 -3.62 -0.76z"/>
  <path d="M164.89 232.30 c0 -0.69 0.27 -0.76 2.78 -0.76 3.24 0 4.46 0.27 4.46 0.99 0 0.42 -0.80 0.53 -3.62 0.53 -3.35 0 -3.62 -0.04 -3.62 -0.76z"/>
  <path d="M154.61 231.92 c0 -0.69 0.27 -0.76 2.97 -0.76 3.43 0 4.65 0.27 4.65 0.99 0 0.42 -0.84 0.53 -3.81 0.53 -3.54 0 -3.81 -0.04 -3.81 -0.76z"/>
  <path d="M145.85 231.53 c0 -0.69 0.27 -0.76 2.78 -0.76 3.24 0 4.46 0.27 4.46 0.99 0 0.42 -0.80 0.53 -3.62 0.53 -3.35 0 -3.62 -0.04 -3.62 -0.76z"/>
  <path d="M138.24 231.15 c0 -0.69 0.27 -0.76 2.21 -0.76 2.70 0 3.88 0.30 3.88 0.99 0 0.42 -0.72 0.53 -3.05 0.53 -2.78 0 -3.05 -0.08 -3.05 -0.76z"/>
  <path d="M402.52 230.20 c0 -1.45 0.11 -1.71 0.76 -1.71 0.80 0 0.99 0.88 0.53 2.59 -0.42 1.56 -1.29 0.99 -1.29 -0.88z"/>
  <path d="M128.72 231.23 c0 -0.15 -0.69 -0.23 -1.52 -0.15 l-1.52 0.15 0 -1.49 c0 -1.45 0.08 -1.52 1.83 -2.09 2.17 -0.72 16.07 -6.13 32.60 -12.68 17.37 -6.89 32.90 -12.76 33.74 -12.76 0.38 0 0.76 -0.15 0.84 -0.30 0.08 -0.15 1.07 -0.65 2.21 -1.10 2.09 -0.76 3.08 -2.02 1.64 -2.02 -1.07 0 -1.64 -0.76 -1.64 -2.17 0 -1.10 -0.11 -1.26 -1.07 -1.26 -1.37 0 -1.98 -0.61 -1.98 -1.98 0 -0.88 -0.15 -1.07 -0.95 -1.07 -1.10 0 -1.45 -0.61 -1.26 -2.09 0.11 -0.95 0.53 -0.57 4.68 4.19 4.99 5.67 5.33 6.13 4.80 6.44 -0.19 0.11 -4.57 1.83 -9.79 3.81 -12.41 4.68 -19.08 7.27 -31.57 12.22 -11.81 4.65 -18.20 7.16 -26.28 10.28 -3.12 1.18 -5.86 2.32 -6.05 2.51 -0.23 0.19 1.10 0.34 3.24 0.34 4.07 0 5.29 0.23 5.29 0.99 0 0.42 -0.80 0.53 -3.62 0.53 -1.98 0 -3.62 -0.11 -3.62 -0.30z"/>
  <path d="M402.90 225.82 c0 -1.26 0.11 -1.52 0.76 -1.52 0.80 0 0.95 0.61 0.53 2.21 -0.42 1.49 -1.29 1.03 -1.29 -0.69z"/>
  <path d="M188.77 188.62 c-0.15 -0.11 -0.27 -0.72 -0.27 -1.29 0 -0.88 -0.19 -1.07 -1.03 -1.18 -0.91 -0.11 -1.07 -0.30 -1.18 -1.52 -0.11 -1.29 -0.23 -1.45 -1.18 -1.45 -1.29 0 -2.32 -1.07 -2.32 -2.40 0 -0.80 -0.19 -1.03 -0.88 -1.03 -1.18 0 -1.79 -0.69 -1.79 -1.98 0 -0.88 -0.15 -1.07 -0.88 -1.07 -1.10 0 -2.17 -1.10 -2.17 -2.21 0 -0.57 -0.23 -0.84 -0.69 -0.84 -0.99 0 -1.60 -0.76 -1.60 -1.98 0 -0.88 -0.15 -1.07 -0.88 -1.07 -1.22 0 -1.79 -0.69 -1.79 -2.13 0 -1.14 -0.11 -1.26 -1.22 -1.37 -1.10 -0.11 -1.26 -0.27 -1.37 -1.33 -0.11 -1.03 -0.30 -1.26 -0.99 -1.26 -1.14 0 -1.75 -0.69 -1.75 -1.98 0 -0.88 -0.15 -1.07 -0.88 -1.07 -1.18 0 -1.79 -0.69 -1.79 -1.98 0 -0.88 -0.15 -1.07 -0.95 -1.07 -1.10 0 -1.45 -0.61 -1.26 -2.09 0.11 -0.95 0.72 -0.38 6.05 5.75 3.24 3.77 9.67 11.12 14.28 16.34 4.61 5.26 8.53 9.75 8.68 10.02 0.19 0.30 -0.08 0.46 -0.84 0.46 -0.61 0 -1.22 -0.11 -1.33 -0.27z"/>
  <path d="M160.70 153.62 c0 -1.90 0.84 -3.96 1.60 -3.96 0.84 0 0.84 0.34 0.04 2.93 -0.69 2.13 -1.64 2.74 -1.64 1.03z"/>
  <path d="M162.61 147.53 c0 -1.18 1.49 -6.36 1.90 -6.63 0.15 -0.11 0.38 -0.95 0.50 -1.90 0.11 -0.91 0.42 -1.75 0.61 -1.83 0.23 -0.08 0.42 -0.57 0.42 -1.10 0 -1.29 0.80 -3.92 1.22 -3.92 0.15 0 0.30 -0.46 0.30 -0.99 0 -1.29 1.90 -7.54 2.32 -7.69 0.19 -0.08 0.34 -0.57 0.34 -1.10 0 -1.29 2.28 -8.64 2.70 -8.80 0.19 -0.08 0.34 -0.61 0.34 -1.14 0 -1.79 0.42 -2.74 1.18 -2.74 0.42 0 0.72 0.19 0.72 0.42 0 0.27 -2.13 7.43 -4.72 15.92 -2.63 8.49 -5.22 17.06 -5.79 19 -0.65 2.13 -1.26 3.50 -1.56 3.50 -0.27 0 -0.50 -0.42 -0.50 -0.99z"/>
  <path d="M174.79 107.47 c0 -1.14 1.07 -4.72 1.52 -5.03 0.15 -0.11 0.38 -0.95 0.50 -1.87 0.11 -0.91 0.38 -1.79 0.57 -1.90 0.19 -0.11 0.46 -0.99 0.57 -1.94 0.11 -0.91 0.42 -1.75 0.61 -1.83 0.23 -0.08 0.42 -0.57 0.42 -1.10 0 -1.87 0.84 -3.92 1.60 -3.92 0.38 0 0.69 0.19 0.69 0.38 0 0.23 -1.18 4.34 -2.67 9.14 -1.45 4.80 -2.67 8.83 -2.67 8.95 0 0.11 -0.27 0.19 -0.57 0.19 -0.38 0 -0.57 -0.38 -0.57 -1.07z"/>
  <path d="M180.89 87.70 c0 -1.83 0.42 -2.78 1.18 -2.78 0.84 0 0.88 0.34 0.27 2.32 -0.50 1.71 -1.45 2.02 -1.45 0.46z"/>
  <path d="M182.52 81.99 c0.11 -0.99 0.38 -1.87 0.61 -1.94 0.23 -0.08 0.42 -0.57 0.42 -1.10 0 -1.14 2.25 -8.57 2.67 -8.87 0.50 -0.34 0.72 -3.43 0.27 -3.43 -0.27 0 -6.78 0.95 -14.55 2.09 -7.73 1.14 -19.92 2.93 -27.04 3.96 -7.12 1.07 -16.45 2.44 -20.75 3.08 -26.35 3.92 -24.37 3.73 -24.37 2.74 0 -0.42 -0.15 -0.84 -0.30 -0.91 -0.34 -0.15 -3.08 -17.94 -7.01 -45.62 -1.52 -10.78 -2.89 -19.65 -3.05 -19.73 -0.46 -0.19 -0.38 -2.74 0.08 -2.74 1.03 0 1.71 3.62 4.95 25.97 4.04 28.14 6.13 41.93 6.32 42.16 0.15 0.15 16.41 -2.21 68.13 -9.86 11.08 -1.68 20.18 -2.97 20.22 -2.93 0.04 0.04 -1.22 4.30 -2.82 9.52 -1.98 6.44 -3.08 9.41 -3.47 9.41 -0.38 0 -0.46 -0.42 -0.30 -1.79z"/>
  <path d="M87.43 8.15 c-0.34 -0.95 -0.27 -2.82 0.15 -2.82 0.38 0 0.91 0.84 1.52 2.44 0.34 0.88 0.27 0.99 -0.53 0.99 -0.50 0 -1.03 -0.27 -1.14 -0.61z"/>
  <path d="M32.67 2.21 c-0.84 -0.50 -1.45 -1.14 -1.45 -1.52 0 -0.61 0.34 -0.69 2.67 -0.69 l2.67 0 0 1.52 c0 1.49 -0.04 1.52 -1.22 1.52 -0.69 0 -1.90 -0.38 -2.67 -0.84z"/>
  <path d="M84.77 2.44 c-0.42 -1.10 -0.27 -2.44 0.34 -2.44 0.30 0 0.57 0.08 0.57 0.15 0 0.08 0.27 0.76 0.57 1.52 0.57 1.37 0.57 1.37 -0.34 1.37 -0.50 0 -1.03 -0.27 -1.14 -0.61z"/>
 </g>
 <g fill="#6fb6e6">
  <path d="M144.21 292.20 c-0.53 -0.88 -18.55 -60.44 -18.93 -62.57 -0.38 -2.13 -8.34 -33.89 -10.09 -40.25 -1.33 -4.91 -1.14 -4.57 -11.81 -21.25 -0.69 -1.03 -3.31 -5.26 -5.90 -9.33 -2.55 -4.07 -5.22 -8.26 -5.90 -9.33 -0.65 -1.03 -1.98 -3.08 -2.93 -4.57 -0.95 -1.45 -2.70 -4.19 -3.92 -6.09 -6.78 -10.43 -8.19 -12.87 -8.19 -13.98 0 -0.65 0.50 -2.13 1.10 -3.31 0.65 -1.18 5.71 -11.39 11.27 -22.70 l10.17 -20.56 -1.18 -8 c-1.37 -8.99 -5.45 -37.02 -7.31 -50.08 -0.69 -4.72 -1.33 -8.64 -1.49 -8.76 -0.57 -0.42 -1.14 -1.90 -1.14 -3.01 0 -0.72 -0.19 -1.18 -0.50 -1.18 -0.69 0 -1.41 -1.64 -1.41 -3.05 0 -2.51 0.76 -1.37 4.34 6.59 0.30 0.69 1.87 10.47 3.47 21.78 3.28 23.19 6.51 44.59 6.82 45.05 0.11 0.19 2.21 0.04 4.68 -0.34 9.86 -1.49 40.94 -6.09 54.95 -8.15 6.59 -0.95 15.73 -2.28 20.30 -2.97 4.68 -0.72 8.26 -1.10 8.26 -0.88 0 0.19 -0.91 3.35 -2.06 7.05 -1.14 3.69 -3.66 11.84 -5.56 18.13 -1.94 6.28 -4.68 15.19 -6.09 19.80 -1.45 4.61 -4.42 14.39 -6.66 21.71 -2.21 7.35 -4.61 15.23 -5.33 17.59 -0.72 2.32 -1.33 4.57 -1.33 4.95 0 0.38 0.80 1.64 1.79 2.78 1.03 1.14 6.55 7.46 12.30 14.05 5.75 6.59 13.86 15.80 18.01 20.56 5.75 6.55 7.39 8.64 6.93 8.87 -0.30 0.19 -5.48 2.17 -11.50 4.46 -11.96 4.53 -21.63 8.26 -35.72 13.86 -13.90 5.52 -26.01 10.17 -26.43 10.17 -0.23 0 -0.42 0.15 -0.42 0.34 0 0.53 6.74 0.91 43.98 2.32 34.81 1.33 40.33 1.56 43.22 1.64 2.78 0.11 2.86 0.11 2.97 1.14 0.08 0.61 0.34 1.03 0.69 1.03 0.30 0 0.46 -0.15 0.34 -0.38 -0.76 -1.26 1.29 -0.08 12.83 7.31 4.34 2.78 11.27 7.20 15.35 9.82 4.11 2.63 10.36 6.66 13.90 8.95 3.54 2.32 7.81 5.03 9.41 6.05 1.64 1.07 4.07 2.59 5.41 3.43 8.30 5.29 12.95 8.49 12.72 8.80 -0.19 0.15 -0.04 0.23 0.27 0.11 0.30 -0.08 4.07 2.13 8.38 4.95 8 5.29 10.40 7.08 10.02 7.46 -0.15 0.11 -16.53 0.19 -36.44 0.15 -19.92 0 -35.45 -0.15 -34.50 -0.30 l1.71 -0.27 -2.09 -0.08 c-1.14 -0.04 -3.24 -0.19 -4.61 -0.34 -1.37 -0.15 -2.89 -0.19 -3.43 -0.08 -0.88 0.23 -0.88 0.23 0.23 0.46 0.65 0.11 2.17 0.23 3.43 0.27 4.57 0.15 2.44 0.42 -3.35 0.42 l-5.94 0 -0.23 -1.98 c-0.11 -1.10 -0.80 -8.45 -1.56 -16.30 -1.75 -18.81 -3.54 -37.05 -3.69 -37.17 -0.04 -0.04 -0.80 0.95 -1.68 2.25 -8 11.88 -12.53 18.55 -14.62 21.59 -3.54 5.14 -8.80 12.91 -15.54 22.96 l-5.83 8.64 -16.87 0 c-9.29 0 -16.98 -0.11 -17.06 -0.27z m100.23 -0.27 c-0.38 -0.38 -2.17 -0.50 -3.58 -0.23 -1.37 0.27 -1.26 0.30 1.10 0.34 1.45 0 2.55 -0.04 2.48 -0.11z m5.10 -0.27 c-0.50 -0.19 -1.26 -0.15 -1.71 0 -0.69 0.27 -0.53 0.34 0.84 0.34 1.37 0 1.52 -0.08 0.88 -0.34z m12.45 0 c-0.88 -0.38 -4.07 -0.23 -4.49 0.19 -0.11 0.11 1.07 0.23 2.63 0.19 2.25 0 2.63 -0.08 1.87 -0.38z m-39.34 -3.08 c-0.08 -0.50 -0.15 -0.19 -0.15 0.65 -0.04 0.84 0.04 1.22 0.15 0.88 0.08 -0.38 0.08 -1.07 0 -1.52z m-0.38 -3.05 c-0.08 -0.50 -0.15 -0.19 -0.15 0.65 -0.04 0.84 0.04 1.22 0.15 0.88 0.08 -0.38 0.08 -1.07 0 -1.52z m-0.61 -6.85 l-0.42 -1.26 0.19 1.29 c0.11 0.69 0.23 1.98 0.27 2.86 l0.04 1.56 0.15 -1.60 c0.08 -0.84 -0.04 -2.13 -0.23 -2.86z m-0.53 -5.52 c-0.11 -0.38 -0.19 -0.08 -0.19 0.65 0 0.72 0.08 1.03 0.19 0.69 0.08 -0.38 0.08 -0.99 0 -1.33z m2.78 -0.42 c-0.34 -0.11 -0.34 -0.23 0.04 -0.50 0.46 -0.27 0.46 -0.38 0 -0.80 -0.38 -0.38 -0.46 -0.38 -0.27 0 0.15 0.23 0.08 0.46 -0.11 0.46 -0.57 0 -0.53 0.69 0.08 1.29 0.30 0.38 0.50 0.38 0.61 0.11 0.08 -0.23 -0.08 -0.50 -0.34 -0.57z"/>
  <path d="M358.88 291.89 c0.11 -0.34 2.67 -4.72 5.67 -9.82 3.05 -5.06 8.04 -13.48 11.12 -18.74 5.71 -9.63 15.96 -26.85 24.30 -40.75 2.51 -4.19 4.72 -7.77 4.95 -8 0.23 -0.27 0.27 0.53 0.11 2.28 -0.11 1.49 -0.57 6.51 -0.99 11.23 -0.95 10.55 -1.03 11.04 -1.71 11.04 -0.72 0 -0.72 -0.91 0.15 -10.47 0.42 -4.19 0.69 -7.65 0.65 -7.69 -0.08 -0.08 -0.95 1.37 -2.02 3.24 -1.07 1.83 -4.15 7.01 -6.85 11.50 -2.74 4.49 -8.26 13.75 -12.30 20.56 -4.04 6.82 -8.07 13.60 -8.95 15.04 -1.83 3.01 -8.38 14.20 -10.82 18.39 -1.33 2.28 -1.75 2.74 -2.59 2.74 -0.69 0 -0.91 -0.15 -0.72 -0.57z"/>
  <path d="M397.19 291.89 c0 -0.30 0.27 -0.57 0.57 -0.57 0.30 0 0.57 0.27 0.57 0.57 0 0.30 -0.27 0.57 -0.57 0.57 -0.30 0 -0.57 -0.27 -0.57 -0.57z"/>
  <path d="M397.30 286.87 c0.15 -1.87 0.65 -7.50 1.10 -12.57 0.76 -8.34 0.91 -9.25 1.52 -9.25 0.38 0 0.69 0.11 0.69 0.30 0 0.80 -1.94 22.54 -2.13 23.61 -0.11 0.76 -0.42 1.22 -0.80 1.22 -0.53 0 -0.57 -0.42 -0.38 -3.31z"/>
  <path d="M399.47 262.76 c0 -1.64 0.11 -1.90 0.76 -1.90 0.57 0 0.76 0.27 0.76 1.07 0 1.60 -0.42 2.74 -0.99 2.74 -0.38 0 -0.53 -0.53 -0.53 -1.90z"/>
  <path d="M399.85 258.38 c0 -1.45 0.11 -1.71 0.76 -1.71 0.80 0 0.99 0.88 0.53 2.59 -0.42 1.56 -1.29 0.99 -1.29 -0.88z"/>
  <path d="M400.24 254 c0 -1.64 0.11 -1.90 0.76 -1.90 0.57 0 0.76 0.27 0.76 1.07 0 1.60 -0.42 2.74 -0.99 2.74 -0.38 0 -0.53 -0.53 -0.53 -1.90z"/>
  <path d="M400.62 249.81 c0 -1.64 0.11 -1.90 0.76 -1.90 0.57 0 0.76 0.27 0.76 1.07 0 1.60 -0.42 2.74 -0.99 2.74 -0.38 0 -0.53 -0.53 -0.53 -1.90z"/>
  <path d="M401.15 244.22 c0.11 -1.60 0.23 -3.31 0.23 -3.81 0 -0.65 0.23 -0.88 0.80 -0.88 0.76 0 0.80 0.11 0.53 2.78 -0.34 4.04 -0.57 4.84 -1.22 4.84 -0.53 0 -0.57 -0.42 -0.34 -2.93z"/>
  <path d="M32.29 2.21 c-1.45 -0.84 -1.98 -2.21 -0.84 -2.21 0.30 0 1.33 0.46 2.28 0.99 1.60 0.95 1.68 0.95 1.68 0.23 0 -0.42 -0.23 -0.88 -0.46 -0.95 -0.27 -0.11 0.30 -0.23 1.33 -0.23 1.45 -0.04 1.79 0.08 1.79 0.65 -0.04 2.25 -3.12 3.05 -5.79 1.52z"/>
  <path d="M84.16 0.76 c0 -0.50 0.27 -0.76 0.72 -0.76 0.38 0 0.80 0.34 0.91 0.76 0.15 0.61 0 0.76 -0.72 0.76 -0.65 0 -0.91 -0.23 -0.91 -0.76z"/>
 </g>
 <g fill="#5fade3">
  <path d="M140.60 281.35 c-6.78 -21.71 -14.93 -49.32 -14.93 -50.50 0 -1.41 0.61 -1.60 1.14 -0.34 0.19 0.46 2.78 8.91 5.75 18.74 2.93 9.86 7.12 23.61 9.25 30.58 3.73 12.07 3.88 12.64 3.08 12.64 -0.76 0 -1.14 -0.99 -4.30 -11.12z"/>
  <path d="M176.55 292.01 c0.15 -0.27 1.18 -1.79 2.25 -3.35 1.10 -1.56 4.72 -6.97 8.11 -12 3.35 -5.03 7.46 -11.12 9.10 -13.52 4.72 -6.85 9.98 -14.62 13.44 -19.80 4.87 -7.27 6.89 -9.94 7.27 -9.67 0.50 0.30 0.42 1.98 -0.11 2.17 -0.38 0.15 -0.38 0.27 0 0.57 0.30 0.19 0.61 1.07 0.72 1.94 0.19 1.41 0.15 1.56 -0.61 1.56 -0.65 0 -0.80 -0.23 -0.80 -1.33 0 -0.72 -0.15 -1.33 -0.38 -1.33 -0.19 0 -0.38 0.27 -0.38 0.57 0 0.30 -0.15 0.57 -0.38 0.57 -0.19 0 -0.38 0.23 -0.38 0.50 0 0.27 -0.34 0.88 -0.76 1.33 -0.42 0.46 -0.76 0.91 -0.76 1.03 0 0.42 -5.86 8.95 -6.17 8.95 -0.15 0 -0.30 0.27 -0.30 0.57 0 0.30 -0.15 0.57 -0.38 0.57 -0.19 0 -0.38 0.23 -0.38 0.50 0 0.27 -0.30 0.84 -0.65 1.26 -0.38 0.38 -0.91 1.18 -1.22 1.79 -0.30 0.57 -0.69 1.03 -0.88 1.03 -0.15 0 -0.30 0.27 -0.30 0.57 0 0.34 -0.27 0.69 -0.57 0.80 -0.30 0.15 -0.57 0.46 -0.57 0.76 0 0.30 -0.15 0.53 -0.38 0.53 -0.19 0 -0.38 0.27 -0.38 0.57 0 0.30 -0.15 0.57 -0.38 0.57 -0.19 0 -0.38 0.23 -0.38 0.50 0 0.27 -0.30 0.84 -0.69 1.26 -0.38 0.38 -0.80 1.03 -0.95 1.41 -0.11 0.34 -0.42 0.65 -0.65 0.65 -0.19 0 -0.38 0.27 -0.38 0.57 0 0.30 -0.15 0.57 -0.38 0.57 -0.19 0 -0.38 0.27 -0.38 0.57 0 0.30 -0.15 0.57 -0.38 0.57 -0.19 0 -0.38 0.27 -0.38 0.57 0 0.30 -0.15 0.57 -0.38 0.57 -0.19 0 -0.38 0.27 -0.38 0.57 0 0.30 -0.15 0.57 -0.38 0.57 -0.19 0 -0.38 0.19 -0.38 0.42 0 0.46 -2.28 3.92 -2.74 4.07 -0.15 0.08 -0.30 0.34 -0.30 0.61 0 0.27 -0.42 0.95 -0.95 1.52 -0.53 0.57 -0.95 1.18 -0.95 1.41 0 0.19 -0.15 0.34 -0.38 0.34 -0.19 0 -0.38 0.27 -0.38 0.57 0 0.30 -0.15 0.57 -0.38 0.57 -0.19 0 -0.38 0.27 -0.38 0.57 0 0.30 -0.15 0.57 -0.38 0.57 -0.19 0 -0.38 0.27 -0.38 0.57 0 0.30 -0.15 0.57 -0.38 0.57 -0.19 0 -0.38 0.27 -0.38 0.57 0 0.30 -0.15 0.57 -0.38 0.57 -0.19 0 -0.38 0.27 -0.38 0.57 0 0.30 -0.15 0.57 -0.38 0.57 -0.19 0 -0.38 0.27 -0.38 0.57 0 0.30 -0.15 0.57 -0.38 0.57 -0.19 0 -0.38 0.27 -0.38 0.57 0 0.30 -0.15 0.57 -0.38 0.57 -0.19 0 -0.38 0.27 -0.38 0.57 0 0.30 -0.15 0.57 -0.38 0.57 -0.19 0 -0.38 0.27 -0.38 0.57 0 0.30 -0.15 0.57 -0.38 0.57 -0.19 0 -0.38 0.27 -0.38 0.57 0 0.30 -0.15 0.57 -0.38 0.57 -0.19 0 -0.38 0.23 -0.38 0.50 0 0.27 -0.30 0.84 -0.65 1.26 -0.38 0.38 -0.91 1.18 -1.22 1.79 -0.42 0.76 -0.84 1.03 -1.64 1.03 -0.80 0 -1.03 -0.15 -0.84 -0.46z"/>
  <path d="M359.34 291.44 c0.38 -0.61 1.49 -2.44 2.44 -4.11 2.40 -4.15 8.15 -13.90 10.09 -17.14 0.88 -1.45 4.91 -8.23 8.95 -15.04 12.41 -20.91 13.37 -22.54 15.80 -26.47 1.29 -2.09 3.69 -6.09 5.33 -8.87 1.64 -2.74 3.05 -4.95 3.12 -4.87 0.11 0.08 0 1.41 -0.23 2.97 -0.46 3.28 -0.42 3.05 -2.13 22.58 -0.72 8.38 -1.94 21.67 -2.67 29.51 -0.72 7.84 -1.45 16.07 -1.60 18.28 l-0.30 4 -19.76 0.11 -19.73 0.08 0.69 -1.03z"/>
  <path d="M220.87 289.80 c0 -1.71 0.88 -2.17 1.29 -0.65 0.42 1.56 0.27 2.17 -0.53 2.17 -0.65 0 -0.76 -0.27 -0.76 -1.52z"/>
  <path d="M220.49 285.61 c0 -1.71 0.88 -2.17 1.29 -0.65 0.42 1.56 0.27 2.17 -0.53 2.17 -0.65 0 -0.76 -0.27 -0.76 -1.52z"/>
  <path d="M220.11 281.42 c0 -1.71 0.88 -2.17 1.29 -0.65 0.42 1.56 0.27 2.17 -0.53 2.17 -0.65 0 -0.76 -0.27 -0.76 -1.52z"/>
  <path d="M219.73 277.42 c0 -1.52 0.91 -1.87 1.29 -0.46 0.38 1.41 0.27 1.79 -0.53 1.79 -0.61 0 -0.76 -0.27 -0.76 -1.33z"/>
  <path d="M219.35 273.42 c0 -1.71 0.88 -2.17 1.29 -0.65 0.42 1.56 0.27 2.17 -0.53 2.17 -0.65 0 -0.76 -0.27 -0.76 -1.52z"/>
  <path d="M218.97 269.05 c0 -1.52 0.91 -1.87 1.29 -0.46 0.38 1.41 0.27 1.79 -0.53 1.79 -0.61 0 -0.76 -0.27 -0.76 -1.33z"/>
  <path d="M218.59 265.24 c0 -1.52 0.91 -1.87 1.29 -0.46 0.38 1.41 0.27 1.79 -0.53 1.79 -0.61 0 -0.76 -0.27 -0.76 -1.33z"/>
  <path d="M218.21 261.43 c0 -1.52 0.91 -1.87 1.29 -0.46 0.38 1.41 0.27 1.79 -0.53 1.79 -0.61 0 -0.76 -0.27 -0.76 -1.33z"/>
  <path d="M217.83 257.43 c0 -1.71 0.88 -2.17 1.29 -0.65 0.42 1.56 0.27 2.17 -0.53 2.17 -0.65 0 -0.76 -0.27 -0.76 -1.52z"/>
  <path d="M217.44 253.43 c0 -1.52 0.91 -1.87 1.29 -0.46 0.38 1.41 0.27 1.79 -0.53 1.79 -0.61 0 -0.76 -0.27 -0.76 -1.33z"/>
  <path d="M217.06 249.62 c0 -1.52 0.91 -1.87 1.29 -0.46 0.38 1.41 0.27 1.79 -0.53 1.79 -0.61 0 -0.76 -0.27 -0.76 -1.33z"/>
  <path d="M216.68 246.01 c0 -1.71 0.88 -2.17 1.29 -0.65 0.42 1.56 0.27 2.17 -0.53 2.17 -0.65 0 -0.76 -0.27 -0.76 -1.52z"/>
  <path d="M216.30 242.20 c0 -1.71 0.88 -2.17 1.29 -0.65 0.42 1.56 0.27 2.17 -0.53 2.17 -0.65 0 -0.76 -0.27 -0.76 -1.52z"/>
  <path d="M121.33 214.32 c-2.06 -8.23 -4.57 -18.20 -5.64 -22.13 -2.09 -7.96 -1.26 -6.28 -10.24 -20.45 -8.19 -12.91 -11.01 -17.40 -11.01 -17.63 0 -0.15 -0.27 -0.57 -0.61 -0.91 -1.03 -1.10 -12.34 -18.93 -12.34 -19.42 0 -0.27 -0.15 -0.50 -0.30 -0.50 -0.19 0 -0.65 -0.65 -1.07 -1.41 -0.38 -0.80 -0.84 -1.52 -0.95 -1.64 -0.11 -0.11 -0.69 -0.88 -1.22 -1.71 -0.95 -1.41 -1.45 -4 -0.72 -4 0.15 0 1.37 1.75 2.74 3.92 1.33 2.13 3.88 6.13 5.64 8.83 3.12 4.80 4.38 6.78 7.08 10.97 0.69 1.07 3.39 5.33 5.94 9.41 2.59 4.07 5.22 8.30 5.90 9.33 10.66 16.68 10.47 16.34 11.81 21.25 1.87 6.82 10.09 39.80 10.09 40.44 0 0.30 -0.30 0.57 -0.69 0.57 -0.61 0 -1.22 -2.09 -4.42 -14.93z"/>
  <path d="M77.69 122.28 c0 -1.26 0.72 -3.08 1.22 -3.08 0.15 0 0.30 -0.27 0.30 -0.57 0 -0.72 3.01 -6.82 3.47 -6.97 0.19 -0.08 0.34 -0.38 0.34 -0.69 0 -0.27 0.53 -1.64 1.22 -3.01 0.99 -1.94 1.41 -2.48 2.09 -2.48 0.72 0 0.80 0.11 0.53 0.88 -0.38 0.95 -6.51 13.44 -7.65 15.50 -0.91 1.71 -1.52 1.87 -1.52 0.42z"/>
  <path d="M87.97 101.49 c0 -0.72 0.19 -1.33 0.38 -1.33 0.23 0 0.38 -0.34 0.38 -0.76 0 -0.42 2.25 -5.22 4.95 -10.66 2.74 -5.45 4.95 -9.98 4.95 -10.05 0 -0.08 -1.07 -0.42 -2.36 -0.80 -1.33 -0.34 -9.86 -2.74 -18.96 -5.33 -9.10 -2.59 -17.29 -4.87 -18.16 -5.10 -1.52 -0.42 -1.64 -0.53 -1.64 -1.71 0 -0.84 0.61 -2.25 1.83 -4.27 5.67 -9.25 28.26 -46.69 29.02 -48.06 1.03 -1.83 2.55 -2.28 2.59 -0.72 0 0.91 0.72 6.02 4.46 31.68 4.04 27.76 4.95 33.36 5.56 33.74 0.30 0.19 0.34 0.34 0.15 0.34 -0.23 0 -3.12 5.48 -6.47 12.19 -3.31 6.70 -6.21 12.19 -6.36 12.19 -0.15 0 -0.30 -0.61 -0.30 -1.33z"/>
  <path d="M33.63 3.16 c-0.46 -0.15 -0.72 -2.02 -0.30 -2.02 0.08 0 0.57 0.19 1.10 0.46 0.88 0.38 1.07 0.30 1.79 -0.57 0.91 -1.18 2.25 -1.37 2.25 -0.34 0 1.68 -3.05 3.24 -4.84 2.48z"/>
 </g>
 <g fill="#5ba5d8">
  <path d="M111.05 287.44 c-1.56 -2.78 -5.33 -9.60 -8.42 -15.16 -3.12 -5.56 -6.93 -12.41 -8.49 -15.19 -2.70 -4.87 -5.60 -8.95 -16.83 -23.46 -15.16 -19.57 -17.78 -22.96 -18.74 -24.11 -1.56 -1.79 -1.41 -3.24 1.26 -14.28 2.36 -9.79 6.09 -25.74 10.43 -44.44 1.33 -5.75 3.05 -13.02 3.81 -16.18 0.72 -3.12 1.60 -6.89 1.94 -8.38 0.91 -4.07 1.26 -4.76 2.28 -4.76 0.91 0 0.91 0 0.30 1.45 -0.34 0.76 -0.69 1.60 -0.76 1.79 -0.15 0.34 3.66 6.51 15.12 24.37 1.18 1.90 3.85 6.09 5.90 9.33 2.06 3.24 5.52 8.72 7.73 12.19 8.76 13.82 8.19 12.72 9.86 18.89 0.84 3.12 3.54 13.75 5.98 23.57 4.27 17.29 11.39 41.93 19.84 68.81 1.75 5.60 3.20 10.28 3.20 10.40 0 0.11 -7.12 0.19 -15.77 0.19 l-15.80 0 -2.86 -5.03z"/>
  <path d="M185.68 278.68 c4.99 -7.39 12 -17.71 15.58 -22.96 3.58 -5.22 8.45 -12.38 10.82 -15.88 2.36 -3.54 4.46 -6.28 4.65 -6.17 0.19 0.11 0.34 0.88 0.34 1.71 0 1.22 -0.11 1.49 -0.76 1.49 -0.42 0 -0.76 0.27 -0.76 0.57 0 0.30 -0.15 0.57 -0.38 0.57 -0.19 0 -0.38 0.27 -0.38 0.57 0 0.30 -0.15 0.57 -0.38 0.57 -0.19 0 -0.38 0.27 -0.38 0.57 0 0.30 -0.15 0.57 -0.38 0.57 -0.19 0 -0.38 0.27 -0.38 0.57 0 0.30 -0.15 0.57 -0.38 0.57 -0.19 0 -0.38 0.27 -0.38 0.57 0 0.30 -0.15 0.57 -0.38 0.57 -0.19 0 -0.38 0.27 -0.38 0.57 0 0.30 -0.15 0.57 -0.38 0.57 -0.19 0 -0.38 0.27 -0.38 0.57 0 0.30 -0.15 0.57 -0.38 0.57 -0.19 0 -0.38 0.27 -0.38 0.57 0 0.30 -0.15 0.57 -0.38 0.57 -0.19 0 -0.38 0.27 -0.38 0.57 0 0.30 -0.15 0.57 -0.38 0.57 -0.19 0 -0.38 0.27 -0.38 0.57 0 0.30 -0.15 0.57 -0.38 0.57 -0.19 0 -0.38 0.27 -0.38 0.57 0 0.30 -0.15 0.57 -0.38 0.57 -0.19 0 -0.38 0.27 -0.38 0.57 0 0.34 -0.27 0.69 -0.57 0.80 -0.30 0.15 -0.57 0.46 -0.57 0.76 0 0.30 -0.15 0.53 -0.38 0.53 -0.19 0 -0.38 0.27 -0.38 0.57 0 0.30 -0.15 0.57 -0.38 0.57 -0.19 0 -0.38 0.27 -0.38 0.57 0 0.30 -0.15 0.57 -0.38 0.57 -0.19 0 -0.38 0.27 -0.38 0.57 0 0.34 -0.34 0.57 -0.95 0.57 -0.84 0 -0.95 0.15 -0.95 1.33 0 0.72 -0.15 1.33 -0.38 1.33 -0.19 0 -0.38 0.27 -0.38 0.57 0 0.30 -0.15 0.57 -0.38 0.57 -0.19 0 -0.38 0.27 -0.38 0.57 0 0.30 -0.15 0.57 -0.38 0.57 -0.19 0 -0.38 0.27 -0.38 0.57 0 0.30 -0.15 0.57 -0.38 0.57 -0.19 0 -0.38 0.27 -0.38 0.57 0 0.30 -0.15 0.57 -0.38 0.57 -0.19 0 -0.38 0.27 -0.38 0.57 0 0.34 -0.27 0.69 -0.57 0.80 -0.30 0.15 -0.57 0.46 -0.57 0.76 0 0.30 -0.15 0.53 -0.38 0.53 -0.19 0 -0.38 0.27 -0.38 0.57 0 0.30 -0.15 0.57 -0.38 0.57 -0.19 0 -0.38 0.27 -0.38 0.57 0 0.30 -0.15 0.57 -0.38 0.57 -0.19 0 -0.38 0.27 -0.38 0.57 0 0.30 -0.15 0.57 -0.38 0.57 -0.19 0 -0.38 0.27 -0.38 0.57 0 0.30 -0.15 0.57 -0.38 0.57 -0.19 0 -0.38 0.27 -0.38 0.57 0 0.30 -0.15 0.57 -0.38 0.57 -0.19 0 -0.38 0.27 -0.38 0.57 0 0.30 -0.15 0.57 -0.38 0.57 -0.19 0 -0.38 0.27 -0.38 0.57 0 0.30 -0.15 0.57 -0.38 0.57 -0.19 0 -0.38 0.27 -0.38 0.57 0 0.30 -0.15 0.57 -0.38 0.57 -0.19 0 -0.38 0.27 -0.38 0.57 0 0.34 -0.27 0.69 -0.57 0.80 -0.30 0.15 -0.57 0.46 -0.57 0.76 0 0.30 -0.15 0.53 -0.38 0.53 -0.19 0 -0.38 0.27 -0.38 0.57 0 0.30 -0.15 0.57 -0.38 0.57 -0.19 0 -0.38 0.27 -0.38 0.57 0 0.30 -0.15 0.57 -0.38 0.57 -0.19 0 -0.38 0.27 -0.38 0.57 0 0.30 -0.15 0.57 -0.38 0.57 -0.19 0 -0.38 0.27 -0.38 0.57 0 0.30 -0.15 0.57 -0.38 0.57 -0.19 0 -0.38 0.27 -0.38 0.57 0 0.30 -0.15 0.57 -0.38 0.57 -0.19 0 -0.38 0.27 -0.38 0.57 0 0.30 -0.15 0.57 -0.38 0.57 -0.19 0 -0.38 0.27 -0.38 0.57 0 0.30 -0.15 0.57 -0.38 0.57 -0.19 0 -0.38 0.27 -0.38 0.57 0 0.30 -0.15 0.57 -0.38 0.57 -0.19 0 -0.38 0.27 -0.38 0.57 0 0.30 -0.15 0.57 -0.38 0.57 -0.19 0 -0.38 0.27 -0.38 0.57 0 0.30 -0.15 0.57 -0.38 0.57 -0.19 0 -0.38 0.27 -0.38 0.57 0 0.30 -0.15 0.57 -0.38 0.57 -0.19 0 -0.38 0.27 -0.38 0.57 0 0.30 -0.15 0.57 -0.38 0.57 -0.19 0 -0.38 0.27 -0.38 0.57 0 0.38 -0.38 0.57 -1.18 0.57 -1.14 0 -1.03 -0.15 7.88 -13.40z"/>
  <path d="M220.87 290.56 c0 -1.71 0.88 -2.17 1.29 -0.65 0.42 1.56 0.27 2.17 -0.53 2.17 -0.65 0 -0.76 -0.27 -0.76 -1.52z"/>
  <path d="M220.49 286.56 c0 -1.87 0.88 -2.44 1.29 -0.84 0.46 1.68 0.27 2.55 -0.53 2.55 -0.65 0 -0.76 -0.27 -0.76 -1.71z"/>
  <path d="M220.11 282.18 c0 -1.71 0.88 -2.17 1.29 -0.65 0.42 1.56 0.27 2.17 -0.53 2.17 -0.65 0 -0.76 -0.27 -0.76 -1.52z"/>
  <path d="M219.73 278.18 c0 -1.87 0.88 -2.44 1.29 -0.84 0.46 1.68 0.27 2.55 -0.53 2.55 -0.65 0 -0.76 -0.27 -0.76 -1.71z"/>
  <path d="M219.35 274.19 c0 -1.71 0.88 -2.17 1.29 -0.65 0.42 1.56 0.27 2.17 -0.53 2.17 -0.65 0 -0.76 -0.27 -0.76 -1.52z"/>
  <path d="M218.97 269.81 c0 -1.87 0.88 -2.44 1.29 -0.84 0.46 1.68 0.27 2.55 -0.53 2.55 -0.65 0 -0.76 -0.27 -0.76 -1.71z"/>
  <path d="M400.12 266 c0.11 -1.87 0.27 -3.50 0.34 -3.58 0.27 -0.27 0.11 3.12 -0.23 5.10 -0.23 1.41 -0.27 0.99 -0.11 -1.52z"/>
  <path d="M218.59 266 c0 -1.87 0.88 -2.44 1.29 -0.84 0.46 1.68 0.27 2.55 -0.53 2.55 -0.65 0 -0.76 -0.27 -0.76 -1.71z"/>
  <path d="M218.21 262.19 c0 -1.87 0.88 -2.44 1.29 -0.84 0.46 1.68 0.27 2.55 -0.53 2.55 -0.65 0 -0.76 -0.27 -0.76 -1.71z"/>
  <path d="M400.69 258.46 c0.42 -5.83 1.14 -12.11 1.33 -11.92 0.11 0.08 0 1.94 -0.23 4.11 -0.19 2.17 -0.50 5.52 -0.65 7.46 -0.15 1.94 -0.38 3.58 -0.50 3.66 -0.15 0.11 -0.11 -1.41 0.04 -3.31z"/>
  <path d="M217.83 258.38 c0 -1.87 0.88 -2.44 1.29 -0.84 0.46 1.68 0.27 2.55 -0.53 2.55 -0.65 0 -0.76 -0.27 -0.76 -1.71z"/>
  <path d="M217.44 254.19 c0 -1.87 0.88 -2.44 1.29 -0.84 0.46 1.68 0.27 2.55 -0.53 2.55 -0.65 0 -0.76 -0.27 -0.76 -1.71z"/>
  <path d="M217.06 250.39 c0 -1.87 0.88 -2.44 1.29 -0.84 0.46 1.68 0.27 2.55 -0.53 2.55 -0.65 0 -0.76 -0.27 -0.76 -1.71z"/>
  <path d="M216.68 246.77 c0 -1.71 0.88 -2.17 1.29 -0.65 0.42 1.56 0.27 2.17 -0.53 2.17 -0.65 0 -0.76 -0.27 -0.76 -1.52z"/>
  <path d="M216.30 242.96 c0 -1.71 0.88 -2.17 1.29 -0.65 0.42 1.56 0.27 2.17 -0.53 2.17 -0.65 0 -0.76 -0.27 -0.76 -1.52z"/>
  <path d="M402.22 242.96 c0 -0.72 0.08 -1.03 0.19 -0.65 0.08 0.34 0.08 0.95 0 1.33 -0.11 0.34 -0.19 0.04 -0.19 -0.69z"/>
  <path d="M215.92 239.15 c0 -1.71 0.88 -2.17 1.29 -0.65 0.42 1.56 0.27 2.17 -0.53 2.17 -0.65 0 -0.76 -0.27 -0.76 -1.52z"/>
  <path d="M402.63 238.77 c0 -0.95 0.08 -1.33 0.15 -0.84 0.08 0.46 0.08 1.22 0 1.71 -0.08 0.46 -0.15 0.08 -0.15 -0.88z"/>
  <path d="M78.83 119.77 c0 -0.72 0.19 -1.33 0.38 -1.33 0.23 0 0.38 -0.34 0.38 -0.76 0 -0.88 8.64 -18.39 9.18 -18.58 0.19 -0.08 0.34 -0.46 0.34 -0.88 0 -0.38 2.09 -4.91 4.65 -10.02 2.55 -5.14 4.57 -9.41 4.49 -9.48 -0.11 -0.08 -9.18 -2.67 -20.18 -5.79 -11.01 -3.12 -20.11 -5.83 -20.26 -6.05 -0.50 -0.72 -0.34 -2.48 0.30 -3.77 0.72 -1.41 6.25 -10.28 6.59 -10.55 0.15 -0.11 0.42 -0.61 0.69 -1.14 0.23 -0.53 4.65 -7.96 9.82 -16.57 5.18 -8.61 10.28 -17.02 11.35 -18.77 1.03 -1.71 1.79 -3.24 1.71 -3.35 -0.11 -0.08 -8.83 -1.64 -19.38 -3.39 -33.55 -5.60 -34.62 -5.79 -34.62 -6.32 0 -0.19 -0.42 -0.34 -0.95 -0.34 -0.53 0 -0.95 -0.15 -0.95 -0.34 0 -0.19 -0.42 -0.46 -0.95 -0.57 -0.61 -0.15 -0.95 -0.50 -0.95 -0.99 0 -1.07 1.03 -0.95 3.05 0.38 l1.71 1.14 1.14 -1.14 1.18 -1.14 23.95 0.08 23.95 0.11 2.74 6.02 2.78 6.02 -12.11 20.07 c-6.66 11.04 -13.10 21.71 -14.32 23.69 -6.13 9.98 -5.98 9.67 -5.26 9.98 0.69 0.27 35.42 10.09 39.11 11.04 1.03 0.27 1.90 0.69 2.02 0.88 0.08 0.23 -4.34 9.48 -9.79 20.53 -5.45 11.04 -10.17 20.68 -10.51 21.40 -0.80 1.68 -1.29 1.64 -1.29 -0.04z"/>
 </g>
 <g fill="#4f97cf">
  <path d="M110.51 286.83 c-1.71 -3.08 -3.12 -5.83 -3.12 -6.09 0 -0.23 -0.15 -0.46 -0.30 -0.46 -0.19 0 -0.65 -0.72 -1.07 -1.60 -0.38 -0.91 -0.80 -1.71 -0.91 -1.83 -0.42 -0.30 -8.38 -14.81 -8.38 -15.19 0 -0.19 -0.15 -0.42 -0.30 -0.50 -0.27 -0.08 -4.61 -7.54 -5.98 -10.24 -0.19 -0.38 -0.50 -0.72 -0.65 -0.72 -0.19 0 -0.30 -0.23 -0.30 -0.53 0 -0.30 -0.27 -0.61 -0.57 -0.76 -0.30 -0.11 -0.57 -0.46 -0.57 -0.76 0 -0.27 -0.27 -0.61 -0.57 -0.76 -0.30 -0.11 -0.57 -0.46 -0.57 -0.76 0 -0.27 -0.27 -0.61 -0.57 -0.76 -0.30 -0.11 -0.57 -0.57 -0.57 -0.99 0 -0.46 -0.27 -0.76 -0.61 -0.76 -0.34 0 -0.69 -0.34 -0.80 -0.76 -0.11 -0.42 -0.34 -0.76 -0.53 -0.76 -0.19 0 -0.34 -0.34 -0.34 -0.76 0 -0.42 -0.27 -0.76 -0.57 -0.76 -0.34 0 -0.72 -0.30 -0.84 -0.65 -0.15 -0.38 -0.46 -0.84 -0.76 -0.99 -0.27 -0.15 -0.50 -0.65 -0.50 -1.03 0 -0.42 -0.27 -0.76 -0.57 -0.76 -0.34 0 -0.72 -0.30 -0.84 -0.65 -0.15 -0.38 -0.46 -0.84 -0.76 -0.99 -0.27 -0.15 -0.50 -0.53 -0.50 -0.80 0 -0.30 -0.27 -0.61 -0.57 -0.76 -0.30 -0.11 -0.57 -0.57 -0.57 -0.99 0 -0.42 -0.27 -0.76 -0.57 -0.76 -0.34 0 -0.72 -0.30 -0.84 -0.65 -0.15 -0.38 -0.46 -0.84 -0.76 -0.99 -0.27 -0.15 -0.50 -0.53 -0.50 -0.80 0 -0.30 -0.27 -0.61 -0.57 -0.76 -0.30 -0.11 -0.57 -0.53 -0.57 -0.95 0 -0.38 -0.34 -0.80 -0.76 -0.91 -0.46 -0.11 -0.76 -0.53 -0.76 -0.99 0 -0.46 -0.23 -0.80 -0.57 -0.80 -0.30 0 -0.57 -0.34 -0.57 -0.76 0 -0.42 -0.27 -0.76 -0.57 -0.76 -0.30 0 -0.57 -0.30 -0.57 -0.72 0 -0.38 -0.34 -0.80 -0.76 -0.91 -0.42 -0.11 -0.76 -0.53 -0.76 -0.95 0 -0.42 -0.34 -0.84 -0.76 -0.95 -0.42 -0.11 -0.76 -0.46 -0.76 -0.76 0 -0.30 -0.27 -0.65 -0.57 -0.80 -0.30 -0.11 -0.57 -0.53 -0.57 -0.95 0 -0.38 -0.34 -0.80 -0.76 -0.91 -0.42 -0.11 -0.76 -0.46 -0.76 -0.76 0 -0.30 -0.27 -0.65 -0.57 -0.80 -0.30 -0.11 -0.57 -0.53 -0.57 -0.95 0 -0.38 -0.34 -0.80 -0.76 -0.91 -0.42 -0.11 -0.76 -0.46 -0.76 -0.76 0 -0.30 -0.27 -0.65 -0.57 -0.80 -0.30 -0.11 -0.57 -0.42 -0.57 -0.69 0 -0.27 -0.34 -0.72 -0.76 -0.99 -0.42 -0.27 -0.76 -0.80 -0.76 -1.22 0 -0.42 -0.27 -0.76 -0.57 -0.76 -1.29 0 -0.61 -4.07 3.58 -21.86 2.32 -9.63 5.33 -22.43 6.70 -28.41 1.37 -5.98 3.69 -15.88 5.18 -22.05 1.45 -6.17 2.63 -11.50 2.63 -11.92 0 -0.42 2.86 -6.55 6.36 -13.67 5.64 -11.50 6.44 -12.91 7.24 -12.91 1.10 0 1.52 -1.03 -6.02 14.28 -3.43 6.93 -5.98 12.64 -6.25 13.90 -0.27 1.14 -1.41 6.13 -2.59 11.04 -1.18 4.91 -2.93 12.30 -3.85 16.38 -2.70 11.65 -7.92 33.97 -10.36 43.95 -1.98 8.19 -2.13 9.18 -1.64 9.98 0.30 0.50 3.77 5.03 7.73 10.13 21.82 27.99 25.29 32.64 28.48 38.42 1.56 2.78 6.66 11.96 11.35 20.34 4.65 8.38 8.64 15.46 8.83 15.73 0.30 0.34 0.11 0.46 -0.72 0.46 -1.03 0 -1.29 -0.38 -4.23 -5.64z"/>
  <path d="M176.77 292.16 c0.15 -0.38 16.95 -25.29 22.51 -33.36 2.32 -3.39 6.36 -9.29 8.95 -13.18 2.63 -3.88 5.56 -8.15 6.51 -9.52 l1.75 -2.48 0.23 1.14 c0.50 2.25 0.38 3.24 -0.30 3.24 -0.84 0.04 -2.02 0.88 -2.02 1.49 0 0.23 -0.15 0.42 -0.38 0.42 -0.19 0 -0.38 0.27 -0.38 0.57 0 0.30 -0.15 0.57 -0.38 0.57 -0.19 0 -0.38 0.27 -0.38 0.57 0 0.30 -0.15 0.57 -0.38 0.57 -0.19 0 -0.38 0.27 -0.38 0.57 0 0.30 -0.15 0.57 -0.38 0.57 -0.19 0 -0.38 0.27 -0.38 0.57 0 0.30 -0.15 0.57 -0.38 0.57 -0.19 0 -0.38 0.27 -0.38 0.57 0 0.30 -0.15 0.57 -0.38 0.57 -0.19 0 -0.38 0.27 -0.38 0.57 0 0.30 -0.15 0.57 -0.38 0.57 -0.19 0 -0.38 0.27 -0.38 0.57 0 0.30 -0.15 0.57 -0.38 0.57 -0.19 0 -0.38 0.27 -0.38 0.57 0 0.30 -0.15 0.57 -0.38 0.57 -0.19 0 -0.38 0.27 -0.38 0.57 0 0.30 -0.15 0.57 -0.38 0.57 -0.19 0 -0.38 0.27 -0.38 0.57 0 0.34 -0.27 0.69 -0.57 0.80 -0.30 0.15 -0.57 0.46 -0.57 0.76 0 0.30 -0.15 0.53 -0.38 0.53 -0.19 0 -0.38 0.27 -0.38 0.57 0 0.30 -0.15 0.57 -0.38 0.57 -0.19 0 -0.38 0.27 -0.38 0.57 0 0.30 -0.15 0.57 -0.38 0.57 -0.19 0 -0.38 0.27 -0.38 0.57 0 0.34 -0.27 0.69 -0.57 0.80 -0.30 0.15 -0.57 0.46 -0.57 0.76 0 0.30 -0.15 0.53 -0.38 0.53 -0.19 0 -0.38 0.27 -0.38 0.57 0 0.30 -0.15 0.57 -0.38 0.57 -0.19 0 -0.38 0.27 -0.38 0.57 0 0.30 -0.15 0.57 -0.38 0.57 -0.19 0 -0.38 0.27 -0.38 0.57 0 0.30 -0.15 0.57 -0.38 0.57 -0.19 0 -0.38 0.27 -0.38 0.57 0 0.30 -0.15 0.57 -0.38 0.57 -0.19 0 -0.38 0.27 -0.38 0.57 0 0.30 -0.27 0.57 -0.57 0.57 -0.30 0 -0.57 0.30 -0.57 0.65 0 0.76 -3.73 6.59 -4.23 6.59 -0.19 0 -0.34 0.27 -0.34 0.57 0 0.30 -0.15 0.57 -0.38 0.57 -0.19 0 -0.38 0.27 -0.38 0.57 0 0.30 -0.15 0.57 -0.38 0.57 -0.19 0 -0.38 0.27 -0.38 0.57 0 0.30 -0.15 0.57 -0.38 0.57 -0.19 0 -0.38 0.27 -0.38 0.57 0 0.30 -0.15 0.57 -0.38 0.57 -0.19 0 -0.38 0.27 -0.38 0.57 0 0.34 -0.27 0.69 -0.57 0.80 -0.30 0.15 -0.57 0.46 -0.57 0.76 0 0.30 -0.15 0.53 -0.38 0.53 -0.19 0 -0.38 0.27 -0.38 0.57 0 0.30 -0.15 0.57 -0.38 0.57 -0.19 0 -0.38 0.27 -0.38 0.57 0 0.30 -0.15 0.57 -0.38 0.57 -0.19 0 -0.38 0.27 -0.38 0.57 0 0.30 -0.15 0.57 -0.38 0.57 -0.19 0 -0.38 0.27 -0.38 0.57 0 0.30 -0.15 0.57 -0.38 0.57 -0.19 0 -0.38 0.27 -0.38 0.57 0 0.30 -0.15 0.57 -0.38 0.57 -0.19 0 -0.38 0.27 -0.38 0.57 0 0.30 -0.15 0.57 -0.38 0.57 -0.19 0 -0.38 0.27 -0.38 0.57 0 0.30 -0.15 0.57 -0.38 0.57 -0.19 0 -0.38 0.27 -0.38 0.57 0 0.30 -0.15 0.57 -0.38 0.57 -0.19 0 -0.38 0.27 -0.38 0.57 0 0.30 -0.15 0.57 -0.38 0.57 -0.19 0 -0.38 0.27 -0.38 0.57 0 0.30 -0.15 0.57 -0.38 0.57 -0.19 0 -0.38 0.27 -0.38 0.57 0 0.30 -0.15 0.57 -0.38 0.57 -0.19 0 -0.38 0.19 -0.38 0.42 0 0.69 -1.03 1.49 -1.90 1.49 -0.46 0 -0.76 -0.15 -0.69 -0.30z"/>
  <path d="M220.87 291.13 c0 -1.52 0.91 -1.87 1.29 -0.46 0.38 1.41 0.27 1.79 -0.53 1.79 -0.61 0 -0.76 -0.27 -0.76 -1.33z"/>
  <path d="M220.49 287.70 c0 -1.87 0.88 -2.44 1.29 -0.84 0.46 1.68 0.27 2.55 -0.53 2.55 -0.65 0 -0.76 -0.27 -0.76 -1.71z"/>
  <path d="M220.11 283.33 c0 -1.37 0.15 -1.90 0.53 -1.90 0.57 0 0.99 1.14 0.99 2.78 0 0.76 -0.19 1.03 -0.76 1.03 -0.65 0 -0.76 -0.27 -0.76 -1.90z"/>
  <path d="M219.73 279.33 c0 -1.87 0.88 -2.44 1.29 -0.84 0.46 1.68 0.27 2.55 -0.53 2.55 -0.65 0 -0.76 -0.27 -0.76 -1.71z"/>
  <path d="M219.35 275.14 c0 -1.87 0.88 -2.44 1.29 -0.84 0.46 1.68 0.27 2.55 -0.53 2.55 -0.65 0 -0.76 -0.27 -0.76 -1.71z"/>
  <path d="M218.97 270.95 c0 -1.87 0.88 -2.44 1.29 -0.84 0.46 1.68 0.27 2.55 -0.53 2.55 -0.65 0 -0.76 -0.27 -0.76 -1.71z"/>
  <path d="M218.59 267.14 c0 -1.87 0.88 -2.44 1.29 -0.84 0.46 1.68 0.27 2.55 -0.53 2.55 -0.65 0 -0.76 -0.27 -0.76 -1.71z"/>
  <path d="M218.21 263.14 c0 -1.71 0.88 -2.17 1.29 -0.65 0.42 1.56 0.27 2.17 -0.53 2.17 -0.65 0 -0.76 -0.27 -0.76 -1.52z"/>
  <path d="M217.83 259.33 c0 -1.71 0.88 -2.17 1.29 -0.65 0.42 1.56 0.27 2.17 -0.53 2.17 -0.65 0 -0.76 -0.27 -0.76 -1.52z"/>
  <path d="M217.44 255.34 c0 -1.87 0.88 -2.44 1.29 -0.84 0.46 1.68 0.27 2.55 -0.53 2.55 -0.65 0 -0.76 -0.27 -0.76 -1.71z"/>
  <path d="M217.06 251.53 c0 -1.87 0.88 -2.44 1.29 -0.84 0.46 1.68 0.27 2.55 -0.53 2.55 -0.65 0 -0.76 -0.27 -0.76 -1.71z"/>
  <path d="M216.68 247.72 c0 -1.87 0.88 -2.44 1.29 -0.84 0.46 1.68 0.27 2.55 -0.53 2.55 -0.65 0 -0.76 -0.27 -0.76 -1.71z"/>
  <path d="M216.19 243.07 c-0.38 -3.88 -0.34 -4.68 0.27 -4.68 0.61 0 0.84 0.88 1.18 4.68 0.23 2.36 0.19 2.55 -0.50 2.55 -0.61 0 -0.76 -0.38 -0.95 -2.55z"/>
  <path d="M91.01 94.44 c0 -0.69 1.45 -4.04 3.62 -8.38 1.98 -4 3.58 -7.24 3.54 -7.24 -0.08 -0.04 -9.25 -2.63 -20.41 -5.83 l-20.26 -5.79 -1.29 -3.62 c-0.69 -1.98 -4.87 -13.56 -9.33 -25.70 -4.42 -12.15 -9.03 -24.75 -10.21 -27.99 -1.14 -3.24 -2.40 -6.09 -2.74 -6.36 -0.34 -0.27 -0.80 -0.61 -1.03 -0.80 -0.23 -0.19 -0.76 -0.50 -1.22 -0.61 -0.57 -0.19 -0.84 -0.57 -0.84 -1.22 0 -0.50 0.11 -0.91 0.23 -0.91 0.15 0 1.14 0.50 2.21 1.10 2.32 1.33 5.94 2.02 40.33 7.69 9.37 1.56 17.02 2.97 17.02 3.16 0 0.38 -0.99 2.02 -15.92 26.81 -6.09 10.09 -11.88 19.57 -12.80 21.02 -2.32 3.58 -3.39 5.75 -3.01 6.09 0.15 0.15 9.56 2.89 20.87 6.09 11.31 3.20 20.60 5.86 20.68 5.90 0.27 0.23 -8.72 17.71 -9.06 17.71 -0.23 0 -0.38 -0.53 -0.38 -1.14z"/>
 </g>
 <g fill="#3287c5">
  <path d="M37.70 291.55 c0 -0.76 0.99 -1.64 5.26 -4.72 2.86 -2.09 6.55 -4.80 8.15 -6.02 1.60 -1.26 6.32 -4.80 10.47 -7.96 4.11 -3.12 11.31 -8.61 15.92 -12.19 4.61 -3.54 9.29 -7.16 10.40 -8 1.07 -0.80 1.98 -1.60 1.98 -1.71 0 -0.27 -7.24 -9.86 -9.29 -12.38 -0.88 -1.03 -3.47 -4.38 -5.75 -7.43 -7.01 -9.33 -16.22 -20.94 -16.57 -20.94 -0.23 0 -0.72 -0.30 -1.14 -0.65 -0.80 -0.69 -1.10 -3.16 -0.38 -3.16 0.23 0 0.38 -0.30 0.38 -0.65 0 -0.34 1.52 -7.08 3.43 -14.93 3.50 -14.74 5.37 -22.66 10.85 -46.31 1.75 -7.54 3.43 -14.78 3.73 -16.07 l0.57 -2.40 -22.20 0 -22.24 0 -0.34 -1.22 c-0.23 -0.69 -1.68 -5.79 -3.31 -11.35 -1.60 -5.56 -3.50 -12.11 -4.19 -14.62 -0.72 -2.48 -1.37 -4.61 -1.49 -4.72 -0.11 -0.08 -5.06 -2.78 -10.97 -5.98 l-10.78 -5.79 -0.11 -41.20 -0.08 -41.17 15.58 0 15.61 0 2.21 1.33 2.21 1.33 2.17 5.98 c1.22 3.31 5.83 15.96 10.24 28.10 4.46 12.15 8.64 23.72 9.33 25.70 l1.29 3.62 20.75 5.90 c11.42 3.24 20.75 6.02 20.75 6.13 0 0.15 -5.06 10.55 -11.27 23.15 -6.21 12.64 -11.31 23.42 -11.39 23.95 -0.08 0.57 -1.33 6.09 -2.82 12.26 -1.45 6.17 -3.81 16.11 -5.18 22.09 -1.37 5.98 -4.38 18.77 -6.70 28.41 -2.28 9.67 -4.15 17.94 -4.15 18.39 0 0.50 2.21 3.66 5.41 7.77 8.83 11.31 20.41 26.39 24.52 31.87 3.81 5.10 5.75 8.42 20.72 35.42 3.20 5.75 5.86 10.59 5.98 10.78 0.08 0.15 -17.33 0.27 -38.69 0.27 l-38.88 0 0 -0.91z m7.65 -256.94 c-5.45 -14.97 -10.02 -27.57 -10.21 -28.07 -0.30 -0.76 -1.56 0.65 -12.07 13.40 -6.47 7.84 -11.77 14.36 -11.81 14.51 0 0.15 2.17 1.68 4.91 3.35 2.74 1.71 8.38 5.22 12.57 7.81 4.19 2.63 9.52 5.90 11.81 7.31 2.32 1.41 6.51 4.04 9.33 5.83 2.82 1.79 5.18 3.20 5.26 3.12 0.04 -0.04 -4.34 -12.30 -9.79 -27.27z"/>
  <path d="M182.37 284.01 c3.12 -4.68 8.76 -12.99 12.49 -18.47 3.73 -5.48 10.13 -14.89 14.20 -20.91 4.07 -6.02 7.46 -10.70 7.50 -10.40 0.46 2.63 5.45 55.10 5.45 57.05 l0 1.18 -22.66 0 -22.66 0 5.67 -8.45z"/>
 </g>
 <g fill="#207cb5">
  <path d="M4.19 291.89 c0 -0.30 0.69 -4.15 1.52 -8.61 0.88 -4.42 1.87 -9.98 2.28 -12.30 2.09 -12.07 3.50 -20.18 4.04 -23.08 0.53 -2.93 1.79 -9.98 2.89 -16.30 0.50 -2.78 0.57 -2.86 6.21 -5.71 3.77 -1.94 5.79 -3.05 12 -6.51 1.79 -1.03 4.53 -2.51 6.09 -3.35 1.56 -0.84 4.07 -2.25 5.60 -3.12 1.52 -0.84 2.93 -1.56 3.16 -1.56 0.19 0 0.38 -0.11 0.38 -0.27 0 -0.19 1.87 -1.26 4.11 -2.40 4.42 -2.28 4.65 -2.44 4.65 -3.69 0 -0.65 0.23 -0.88 0.80 -0.88 0.72 0 0.76 0.15 0.53 1.64 -0.15 0.88 -0.46 1.71 -0.65 1.83 -0.27 0.15 -0.27 0.34 0 0.50 0.23 0.11 0.46 0.04 0.53 -0.19 0.15 -0.42 9.79 11.69 17.63 22.13 2.28 3.05 4.87 6.40 5.75 7.43 3.28 3.96 10.59 13.90 10.36 14.05 -0.72 0.53 -8.61 6.59 -14.97 11.46 -13.75 10.59 -24.37 18.66 -35.87 27.15 l-3.24 2.36 -16.91 0 c-14.55 0 -16.91 -0.08 -16.91 -0.57z"/>
  <path d="M57.88 202.52 c0 -0.50 0.27 -2.13 0.65 -3.62 0.50 -2.21 0.76 -2.78 1.33 -2.78 0.88 0 0.88 0.11 -0.11 4 -0.53 2.09 -0.99 3.24 -1.33 3.24 -0.30 0 -0.53 -0.38 -0.53 -0.84z"/>
  <path d="M60.55 191.40 c0 -1.98 0.46 -3.28 1.18 -3.28 0.84 0 0.88 0.23 0.30 2.51 -0.46 1.79 -1.49 2.32 -1.49 0.76z"/>
  <path d="M62.07 185 c0 -0.46 0.80 -4.34 1.79 -8.57 1.52 -6.51 1.90 -7.73 2.48 -7.73 0.38 0 0.69 0.15 0.69 0.34 0 0.19 -0.84 4 -1.90 8.45 -1.03 4.46 -1.90 8.15 -1.90 8.23 0 0.08 -0.27 0.11 -0.57 0.11 -0.34 0 -0.57 -0.34 -0.57 -0.84z"/>
  <path d="M67.02 163.56 c0 -1.07 0.15 -1.33 0.76 -1.33 0.80 0 0.91 0.38 0.53 1.83 -0.38 1.37 -1.29 1.03 -1.29 -0.50z"/>
  <path d="M68.17 159.03 c0 -1.98 0.46 -3.28 1.18 -3.28 0.84 0 0.88 0.23 0.30 2.51 -0.46 1.79 -1.49 2.32 -1.49 0.76z"/>
  <path d="M70.07 150.61 c0 -1.07 0.15 -1.33 0.76 -1.33 0.80 0 0.91 0.38 0.53 1.83 -0.38 1.37 -1.29 1.03 -1.29 -0.50z"/>
  <path d="M70.83 147.18 c0 -1.07 0.15 -1.33 0.76 -1.33 0.80 0 0.91 0.38 0.53 1.83 -0.38 1.37 -1.29 1.03 -1.29 -0.50z"/>
  <path d="M71.59 144.18 c0 -0.53 0.19 -1.79 0.46 -2.86 0.34 -1.45 0.61 -1.94 1.14 -1.94 0.84 0 0.84 0.15 0.08 3.24 -0.38 1.56 -0.84 2.48 -1.14 2.48 -0.30 0 -0.53 -0.38 -0.53 -0.91z"/>
  <path d="M73.12 137.28 c0 -1.07 0.15 -1.33 0.76 -1.33 0.80 0 0.91 0.38 0.53 1.83 -0.38 1.37 -1.29 1.03 -1.29 -0.50z"/>
  <path d="M74.64 131.23 c0 -1.98 0.46 -3.28 1.18 -3.28 0.84 0 0.88 0.23 0.30 2.51 -0.46 1.79 -1.49 2.32 -1.49 0.76z"/>
  <path d="M75.78 126.24 c0 -1.07 0.15 -1.33 0.76 -1.33 0.80 0 0.91 0.38 0.53 1.83 -0.38 1.37 -1.29 1.03 -1.29 -0.50z"/>
  <path d="M30.54 123.95 c-0.27 -0.95 -0.46 -2.13 -0.46 -2.67 0 -0.53 -0.15 -0.95 -0.30 -0.95 -0.38 0 -1.60 -4.19 -1.60 -5.52 0 -0.53 -0.15 -0.95 -0.38 -0.95 -0.19 0 -0.38 -0.61 -0.38 -1.33 0 -0.72 -0.15 -1.33 -0.38 -1.33 -0.19 0 -0.38 -0.61 -0.38 -1.33 0 -0.84 0.19 -1.33 0.50 -1.33 0.30 0 1.10 2.13 2.13 5.64 2.93 10.09 3.12 10.74 3.69 10.74 0.30 0 0.53 0.19 0.53 0.38 0 0.23 -0.57 0.38 -1.26 0.38 -1.18 0 -1.29 -0.11 -1.71 -1.71z"/>
  <path d="M25.36 106.17 c-0.72 -2.78 0.42 -4.19 1.22 -1.49 0.61 1.98 0.57 2.32 -0.27 2.32 -0.42 0 -0.80 -0.34 -0.95 -0.84z"/>
  <path d="M23.61 99.20 c0 -0.72 -0.15 -1.33 -0.38 -1.33 -0.19 0 -0.38 -0.61 -0.38 -1.33 0 -0.72 -0.15 -1.33 -0.38 -1.33 -0.19 0 -0.38 -0.23 -0.38 -0.53 0 -0.27 -0.50 -0.72 -1.14 -0.99 -0.80 -0.34 -1.14 -0.72 -1.14 -1.37 0 -1.10 0.04 -1.10 1.90 -0.15 1.14 0.57 1.60 1.10 1.87 2.21 0.23 0.76 0.65 2.28 0.99 3.31 0.72 2.48 0.72 2.86 -0.19 2.86 -0.61 0 -0.76 -0.27 -0.76 -1.33z"/>
  <path d="M16.11 91.13 c-0.50 -0.19 -0.72 -2.02 -0.27 -2.02 0.50 0 3.20 1.68 3.20 1.98 0 0.34 -2.17 0.38 -2.93 0.04z"/>
  <path d="M11.54 88.65 c-0.80 -0.38 -1.29 -2.21 -0.65 -2.21 0.50 0 3.96 2.06 3.96 2.36 0 0.42 -2.32 0.34 -3.31 -0.15z"/>
  <path d="M5.45 85.42 c-0.72 -0.38 -1.26 -0.91 -1.26 -1.33 0 -0.50 -0.30 -0.69 -1.14 -0.69 -1.75 0 -3.05 -0.76 -3.05 -1.79 0 -0.46 0.11 -0.88 0.23 -0.88 0.50 0 8.91 4.72 8.91 5.03 0 0.53 -2.40 0.30 -3.69 -0.34z"/>
  <path d="M51.22 61.43 c-3.54 -2.21 -8.26 -5.14 -10.47 -6.51 -2.21 -1.33 -7.77 -4.80 -12.38 -7.65 -4.61 -2.89 -10.82 -6.74 -13.82 -8.61 -2.97 -1.83 -5.52 -3.47 -5.60 -3.62 -0.11 -0.15 5.79 -7.50 13.02 -16.30 8.49 -10.28 13.33 -15.88 13.52 -15.58 0.50 0.76 0.34 1.79 -0.23 1.79 -0.30 0 -0.61 0.38 -0.69 0.84 -0.08 0.57 -0.42 0.91 -0.95 0.99 -0.65 0.11 -0.88 0.38 -0.88 1.10 0 0.61 -0.27 1.03 -0.76 1.14 -0.42 0.11 -0.76 0.50 -0.76 0.84 0 0.84 -0.72 1.56 -1.60 1.56 -0.50 0 -0.69 0.30 -0.69 0.95 0 0.69 -0.19 0.95 -0.72 0.95 -0.53 0 -0.80 0.30 -0.88 1.03 -0.08 0.76 -0.34 1.10 -0.95 1.18 -0.57 0.08 -0.88 0.42 -0.95 1.14 -0.08 0.72 -0.38 1.07 -0.95 1.14 -0.65 0.11 -0.88 0.38 -0.88 1.10 0 0.61 -0.27 1.03 -0.72 1.14 -0.42 0.11 -0.80 0.57 -0.88 1.03 -0.08 0.50 -0.42 0.84 -0.99 0.91 -0.61 0.11 -0.84 0.38 -0.84 1.10 0 0.61 -0.27 1.03 -0.76 1.14 -0.42 0.11 -0.76 0.50 -0.76 0.84 0 0.84 -0.72 1.56 -1.60 1.56 -0.50 0 -0.69 0.30 -0.69 0.95 0 0.61 -0.23 0.95 -0.57 0.95 -0.30 0 -0.57 0.30 -0.57 0.69 0 0.88 -0.72 1.60 -1.56 1.60 -0.46 0 -0.72 0.34 -0.80 1.07 -0.08 0.72 -0.34 1.07 -0.95 1.14 -0.65 0.11 -0.88 0.38 -0.88 1.07 0 0.57 0.23 0.91 0.57 0.91 0.30 0 0.57 0.27 0.57 0.57 0 0.34 0.34 0.57 0.91 0.57 0.53 0 1.18 0.27 1.52 0.57 0.30 0.30 0.72 0.57 0.91 0.57 0.23 0 0.46 0.11 0.53 0.30 0.08 0.15 0.95 0.69 1.98 1.22 1.03 0.53 1.94 1.26 2.06 1.64 0.08 0.34 0.50 0.65 0.91 0.65 1.10 0 2.97 1.07 2.97 1.71 0 0.34 0.38 0.57 0.95 0.57 0.53 0 1.29 0.34 1.68 0.72 0.38 0.38 1.07 0.84 1.52 0.99 0.46 0.11 0.80 0.42 0.80 0.61 0 0.19 0.27 0.34 0.57 0.34 0.30 0 0.57 0.27 0.57 0.57 0 0.34 0.34 0.57 0.95 0.57 0.53 0 0.95 0.15 0.95 0.34 0 0.19 0.38 0.42 0.88 0.57 0.46 0.11 1.22 0.53 1.68 0.99 0.46 0.42 1.03 0.76 1.26 0.76 0.19 0 0.38 0.15 0.38 0.30 0 0.15 0.57 0.50 1.26 0.76 0.69 0.27 1.60 0.76 2.02 1.18 0.42 0.38 1.14 0.84 1.60 0.95 0.46 0.15 0.84 0.42 0.84 0.61 0 0.15 0.42 0.42 0.95 0.53 0.53 0.15 0.95 0.42 0.95 0.61 0 0.23 0.27 0.38 0.57 0.38 0.30 0 0.88 0.30 1.26 0.69 0.34 0.34 1.14 0.88 1.71 1.10 0.57 0.27 1.03 0.72 1.03 1.07 0 0.34 0.34 0.57 0.84 0.57 0.50 0 1.87 0.61 3.08 1.37 1.22 0.76 2.28 1.29 2.40 1.22 0.08 -0.11 -0.11 -0.91 -0.42 -1.83 -0.69 -1.98 -0.76 -3.92 -0.11 -3.73 0.53 0.19 3.81 8.61 3.66 9.33 -0.08 0.23 -2.93 -1.29 -6.59 -3.58z"/>
  <path d="M52.55 53.85 c0 -1.68 0.69 -1.60 1.41 0.15 0.50 1.18 0.46 1.22 -0.46 1.22 -0.84 0 -0.95 -0.15 -0.95 -1.37z"/>
  <path d="M51.18 50.76 c-0.15 -0.80 -0.38 -1.52 -0.57 -1.64 -0.15 -0.11 -0.53 -1.07 -0.80 -2.09 -0.27 -1.07 -0.57 -1.98 -0.72 -2.09 -0.42 -0.34 -1.10 -2.78 -1.10 -3.88 0 -1.79 0.84 -1.07 1.79 1.45 0.42 1.22 1.41 3.92 2.17 5.98 l1.33 3.69 -0.91 0 c-0.76 0 -0.95 -0.23 -1.18 -1.41z"/>
  <path d="M46.54 38.12 c-0.27 -0.80 -0.46 -1.94 -0.46 -2.48 0 -1.75 0.88 -0.95 1.79 1.60 l0.84 2.36 -0.88 0 c-0.69 0 -0.95 -0.30 -1.29 -1.49z"/>
  <path d="M44.78 33.44 c-0.11 -0.50 -0.23 -1.37 -0.23 -1.94 0 -1.60 0.84 -1.07 1.60 0.99 l0.69 1.79 -0.91 0 c-0.61 0 -0.99 -0.27 -1.14 -0.84z"/>
  <path d="M43.03 27.57 c0 -1.68 0.69 -1.60 1.41 0.15 0.50 1.18 0.46 1.22 -0.46 1.22 -0.84 0 -0.95 -0.15 -0.95 -1.37z"/>
  <path d="M41.89 24.52 c0 -1.68 0.69 -1.60 1.41 0.15 0.50 1.18 0.46 1.22 -0.46 1.22 -0.84 0 -0.95 -0.15 -0.95 -1.37z"/>
  <path d="M40.59 22.01 c-0.11 -0.50 -0.23 -1.37 -0.23 -1.94 0 -1.60 0.84 -1.07 1.60 0.99 l0.69 1.79 -0.91 0 c-0.61 0 -0.99 -0.27 -1.14 -0.84z"/>
  <path d="M38.61 16.11 c-0.15 -0.80 -0.38 -1.52 -0.50 -1.64 -0.42 -0.30 -1.56 -3.58 -1.56 -4.46 0 -0.46 -0.19 -0.88 -0.42 -0.95 -0.23 -0.08 -0.50 -0.95 -0.61 -1.98 -0.30 -2.59 0.57 -2.21 1.68 0.76 0.42 1.22 1.41 3.92 2.17 5.98 l1.33 3.69 -0.91 0 c-0.76 0 -0.95 -0.23 -1.18 -1.41z"/>
 </g>
 <g fill="#2275b7">
  <path d="M4.19 291.25 c0 -1.33 0.57 -4.72 1.90 -11.31 0.42 -2.21 1.64 -9.06 2.70 -15.23 1.07 -6.21 2.67 -15.46 3.62 -20.60 0.95 -5.14 1.94 -10.59 2.21 -12.11 0.27 -1.56 0.76 -3.01 1.03 -3.31 0.30 -0.27 3.20 -1.83 6.44 -3.47 3.24 -1.68 5.98 -3.12 6.09 -3.24 0.11 -0.11 1.64 -0.99 3.43 -1.90 1.79 -0.91 3.31 -1.75 3.43 -1.87 0.38 -0.42 12.91 -7.24 13.33 -7.24 0.19 0 0.38 -0.15 0.38 -0.30 0 -0.15 1.87 -1.22 4.15 -2.36 3.54 -1.79 4.19 -2.25 4.19 -3.01 0.04 -0.80 1.64 -7.73 5.79 -25.10 0.61 -2.55 2.06 -8.72 3.24 -13.71 1.14 -4.95 2.67 -11.50 3.39 -14.55 0.72 -3.05 1.83 -7.84 2.48 -10.66 3.35 -14.62 3.85 -16.38 4.61 -16.38 0.38 0 0.72 0.04 0.72 0.11 0 0.08 -1.18 5.18 -2.63 11.35 -1.45 6.17 -3.66 15.65 -4.95 21.10 -1.26 5.45 -3.85 16.49 -5.75 24.56 -1.90 8.07 -4.04 17.06 -4.72 19.99 l-1.26 5.33 -3.96 2.17 c-2.17 1.18 -4.15 2.32 -4.42 2.55 -0.27 0.23 -0.57 0.42 -0.69 0.42 -0.11 0 -1.45 0.72 -2.97 1.56 -1.52 0.88 -4.04 2.28 -5.60 3.12 -1.56 0.84 -4.30 2.32 -6.09 3.35 -6.21 3.47 -8.23 4.57 -12 6.51 -5.79 2.93 -5.71 2.86 -6.28 6.28 -0.30 1.64 -0.53 3.16 -0.61 3.35 -0.04 0.23 -0.46 2.44 -0.88 4.95 -0.46 2.51 -0.91 5.10 -1.03 5.71 -0.57 3.28 -2.48 13.94 -3.20 18.28 -0.91 5.29 -4.46 24.56 -4.76 26.01 -0.30 1.33 -1.33 1.07 -1.33 -0.38z"/>
  <path d="M31.76 126.16 c-0.76 -0.15 -2.25 -4.80 -8.23 -26.20 -0.88 -3.12 -1.79 -5.52 -2.13 -5.79 -0.34 -0.27 -0.80 -0.61 -1.03 -0.76 -0.19 -0.19 -1.10 -0.65 -1.98 -1.03 -0.91 -0.42 -1.64 -0.95 -1.64 -1.26 0 -0.27 -0.34 -0.50 -0.76 -0.50 -0.72 0 -4.53 -1.71 -4.95 -2.25 -0.11 -0.11 -1.45 -0.80 -2.93 -1.52 -1.52 -0.72 -2.78 -1.56 -2.78 -1.83 0 -0.27 -0.34 -0.50 -0.76 -0.50 -0.46 0 -1.64 -0.42 -2.67 -0.95 -1.52 -0.80 -1.90 -1.14 -1.90 -1.94 l0 -0.99 3.69 1.98 c2.06 1.07 7.27 3.88 11.58 6.21 l7.88 4.23 2.17 7.62 c1.22 4.23 3.28 11.35 4.57 15.84 l2.36 8.19 1.37 0.11 c1.10 0.11 1.41 0.30 1.41 0.88 0 0.57 -0.27 0.72 -1.22 0.69 -0.69 -0.04 -1.60 -0.15 -2.06 -0.23z"/>
  <path d="M53.12 62.45 c-2.28 -1.45 -5.22 -3.24 -6.47 -4.04 -1.26 -0.80 -4.68 -2.93 -7.62 -4.76 -2.93 -1.79 -7.08 -4.34 -9.25 -5.71 -4.91 -3.08 -6.25 -3.92 -8.72 -5.41 -7.27 -4.42 -11.04 -6.78 -11.61 -7.20 -0.61 -0.46 -0.46 -0.76 2.09 -3.77 1.49 -1.79 4.53 -5.48 6.74 -8.15 2.21 -2.70 6.63 -8.07 9.86 -11.96 3.20 -3.88 6.09 -7.46 6.44 -7.96 0.30 -0.46 0.61 -0.80 0.69 -0.72 0.08 0.08 0.72 1.83 1.45 3.92 0.72 2.06 2.78 7.81 4.61 12.72 1.83 4.91 4.91 13.40 6.85 18.85 5.06 14.13 7.69 21.36 8.76 24.11 0.53 1.29 0.95 2.44 0.95 2.55 0 0.42 -0.72 0.04 -4.76 -2.48z"/>
 </g>
 <g fill="#1c6daf">
  <path d="M0 260.48 l0 -31.99 7.62 0 7.62 0 3.69 -1.79 c2.06 -1.03 3.81 -1.94 3.92 -2.06 0.11 -0.11 2.17 -1.22 4.57 -2.48 2.40 -1.22 4.57 -2.44 4.84 -2.70 0.27 -0.23 1.10 -0.65 1.83 -0.91 0.72 -0.27 1.33 -0.61 1.33 -0.72 0 -0.15 0.91 -0.65 2.02 -1.18 1.07 -0.50 2.17 -1.07 2.40 -1.29 0.23 -0.19 1.75 -1.07 3.43 -1.90 1.64 -0.84 3.08 -1.64 3.20 -1.75 0.11 -0.15 2.17 -1.33 4.57 -2.67 2.40 -1.29 4.46 -2.44 4.53 -2.51 0.08 -0.04 -7.08 -7.24 -15.88 -15.96 -11.77 -11.58 -16.07 -16.07 -16.07 -16.72 0 -0.46 1.56 -10.93 3.43 -23.23 1.90 -12.30 3.39 -22.43 3.31 -22.51 -0.08 -0.08 -4.91 2.51 -10.78 5.79 -5.83 3.28 -12.26 6.89 -14.28 8 -2.02 1.14 -4 2.06 -4.46 2.06 l-0.84 0 0 -31.42 c0 -17.29 0.11 -31.42 0.27 -31.42 0.30 0 14.70 7.62 19.57 10.32 l3.28 1.83 1.33 4.87 c1.98 7.05 7.62 26.58 7.73 26.70 0.04 0.04 10.24 0.08 22.62 0.08 21.36 0 22.54 0.04 22.35 0.65 -0.46 1.56 -1.83 7.24 -3.47 14.39 -0.95 4.19 -2.32 10.09 -3.05 13.14 -0.72 3.05 -2.25 9.60 -3.39 14.55 -1.18 4.99 -2.63 11.16 -3.24 13.71 -4.19 17.48 -5.75 24.26 -5.75 24.98 0 0.57 -0.46 1.07 -1.60 1.64 -0.91 0.46 -7.73 4.19 -15.16 8.34 -7.43 4.11 -16.07 8.83 -19.15 10.47 -3.66 1.90 -5.79 3.24 -5.98 3.77 -0.19 0.42 -0.50 1.83 -0.72 3.08 -0.19 1.26 -1.14 6.47 -2.09 11.61 -0.95 5.14 -2.59 14.47 -3.66 20.75 -1.07 6.28 -2.36 13.48 -2.86 15.99 -0.50 2.51 -1.10 5.90 -1.37 7.54 l-0.50 2.93 -2.59 0 -2.59 0 0 -31.99z"/>
 </g>
 <g fill="#155a95">
  <path d="M0 228.87 c0 -0.72 0.27 -0.76 7.81 -0.76 l7.81 0 6.40 -3.35 c5.41 -2.89 13.52 -7.35 29.93 -16.57 l3.39 -1.90 -3.20 -3.08 c-1.75 -1.68 -8.87 -8.64 -15.80 -15.50 l-12.60 -12.45 -11.01 1.29 c-6.05 0.72 -11.39 1.29 -11.84 1.29 l-0.88 0 0 -17.40 0.04 -17.44 4.27 -2.36 c2.32 -1.29 9.48 -5.26 15.88 -8.83 6.36 -3.58 11.69 -6.47 11.81 -6.44 0.15 0.08 -1.41 10.89 -3.47 24.11 l-3.73 23.99 16.53 16.41 c9.10 9.03 16.57 16.60 16.57 16.79 0 0.23 -1.94 1.49 -4.27 2.74 -2.36 1.29 -5.83 3.20 -7.73 4.27 -6.40 3.62 -23.23 12.80 -26.35 14.39 l-3.16 1.56 -8.19 0 c-7.92 0 -8.19 -0.04 -8.19 -0.76z"/>
 </g>
 <g fill="#0c4886">
  <path d="M0 203.01 l0 -26.20 1.45 -0.23 c0.76 -0.11 6.32 -0.76 12.30 -1.45 l10.93 -1.26 12.68 12.57 c7.01 6.89 14.51 14.28 16.68 16.38 l3.92 3.81 -4.49 2.51 c-2.51 1.37 -8.72 4.84 -13.86 7.73 -5.14 2.86 -12.38 6.82 -16.07 8.80 l-6.78 3.58 -8.38 0 -8.38 0 0 -26.24z"/>
 </g>
</svg>